<svg xmlns="http://www.w3.org/2000/svg" width="36" height="36" viewBox="0 0 36 36">
  <g id="Group_5704" data-name="Group 5704" transform="translate(0.033 -0.017)">
    <circle id="Ellipse_204" data-name="Ellipse 204" cx="18" cy="18" r="18" transform="translate(-0.033 0.017)" fill="#edf2ff"/>
    <path id="noun-invite-4372364" d="M173.936,46.668h-9.895a.706.706,0,0,0-.707.707V60.1a.706.706,0,0,0,.707.707h9.895a.706.706,0,0,0,.707-.707V47.375a.706.706,0,0,0-.707-.707Zm-4.241,12.015h-1.413a.707.707,0,1,1,0-1.413h1.413a.707.707,0,1,1,0,1.413Zm2.076-5.881-2.231,2.789a.708.708,0,0,1-1.1,0L166.205,52.8a2.013,2.013,0,0,1,2.783-2.866,2.013,2.013,0,0,1,2.783,2.866Z" transform="translate(-151.021 -35.719)" fill="#036"/>
  </g>
</svg>
