<svg xmlns="http://www.w3.org/2000/svg" width="47.5" height="47.5" viewBox="0 0 47.5 47.5">
  <path id="Subtraction_1" data-name="Subtraction 1" d="M23.75,47.5h-.012a23.639,23.639,0,0,1-13.273-4.06,23.819,23.819,0,0,1-8.6-10.448,23.713,23.713,0,0,1,2.2-22.522,23.842,23.842,0,0,1,10.457-8.6A23.621,23.621,0,0,1,23.771,0h.016A23.64,23.64,0,0,1,37.056,4.074a23.819,23.819,0,0,1,8.589,10.457,23.717,23.717,0,0,1-2.21,22.51,23.823,23.823,0,0,1-10.447,8.595A23.6,23.6,0,0,1,23.75,47.5Zm.018-15.33h0a8.143,8.143,0,0,0,3.036,1.6,13.849,13.849,0,0,0,4.086.614h.087a9.2,9.2,0,0,0,5.784-1.856,6.321,6.321,0,0,0,2.374-4.061,5.343,5.343,0,0,0-.073-1.862,5.033,5.033,0,0,0-.732-1.721A6.061,6.061,0,0,0,34.826,22.5h.025a6.207,6.207,0,0,0,1.628-.9,4.444,4.444,0,0,0,1.053-1.169,3.836,3.836,0,0,0,.5-2.738,5.121,5.121,0,0,0-2.1-3.156,7.921,7.921,0,0,0-4.708-1.4,12.45,12.45,0,0,0-3.435.516,18.76,18.76,0,0,0-3.98,1.708,9.594,9.594,0,0,0-4.365-2.006,12.473,12.473,0,0,0-2.476-.239,12.811,12.811,0,0,0-3.762.55,8.075,8.075,0,0,0-3.15,1.741l1.1,1.081A6.351,6.351,0,0,1,13.594,15a9.306,9.306,0,0,1,3.071-.523,6.731,6.731,0,0,1,3.2.721,3.507,3.507,0,0,1,1.922,2.369l.055,10.28A5.717,5.717,0,0,1,20.2,31.738,4.637,4.637,0,0,1,17,33a4.814,4.814,0,0,1-1.764-.332,4.628,4.628,0,0,1-1.536-.983,5.174,5.174,0,0,1-1.5-3.836V23.34h7.234V21.979H8.392v4.439a8.307,8.307,0,0,0,.748,3.543A7.027,7.027,0,0,0,11.1,32.445a9.526,9.526,0,0,0,5.995,1.942,10.757,10.757,0,0,0,6.674-2.217Zm6.492.94a4.324,4.324,0,0,1-3.133-1.269,4.587,4.587,0,0,1-1.016-1.648,6.962,6.962,0,0,1-.385-2.38h-.006V23.34l5.675.037a3.818,3.818,0,0,1,3.057,1.394,4.91,4.91,0,0,1,1.007,3.092,5.171,5.171,0,0,1-5.2,5.247h0Zm.971-11.142h0c-.141,0-.287-.007-.432-.02H25.7l.025-6A10.789,10.789,0,0,1,30.6,14.513a4.218,4.218,0,0,1,3.1,1.165A3.8,3.8,0,0,1,34.76,18.24a3.744,3.744,0,0,1-1,2.722A3.423,3.423,0,0,1,31.231,21.968Z" fill="#f03"/>
</svg>
