<svg xmlns="http://www.w3.org/2000/svg" width="15.897" height="17.663" viewBox="0 0 15.897 17.663">
  <path id="Path_45379" data-name="Path 45379" d="M18.364-38.052H9.533v1.766h8.832Zm1.766-6.182h-.883V-46H17.481v1.766H10.416V-46H8.649v1.766H7.766a1.758,1.758,0,0,0-1.757,1.766L6-30.1a1.766,1.766,0,0,0,1.766,1.766H20.13A1.766,1.766,0,0,0,21.9-30.1V-42.467A1.766,1.766,0,0,0,20.13-44.234Zm0,14.13H7.766v-9.715H20.13Zm-4.416-4.416H9.533v1.766h6.182Z" transform="translate(-6 46)" fill="#1c1c1c"/>
</svg>
