<svg xmlns="http://www.w3.org/2000/svg" width="25.31" height="25.31" viewBox="0 0 25.31 25.31">
  <path id="Subtraction_1" data-name="Subtraction 1" d="M12.655,25.31h-.007a12.6,12.6,0,0,1-7.072-2.164A12.692,12.692,0,0,1,.994,17.579a12.635,12.635,0,0,1,1.174-12A12.7,12.7,0,0,1,7.739.994,12.586,12.586,0,0,1,12.666,0h.008a12.6,12.6,0,0,1,7.07,2.171,12.692,12.692,0,0,1,4.576,5.572,12.637,12.637,0,0,1-1.177,11.994,12.694,12.694,0,0,1-5.567,4.579A12.577,12.577,0,0,1,12.655,25.31Zm.01-8.168h0A4.339,4.339,0,0,0,14.282,18a7.379,7.379,0,0,0,2.177.327h.046a4.9,4.9,0,0,0,3.082-.989,3.368,3.368,0,0,0,1.265-2.164,2.847,2.847,0,0,0-.039-.992,2.682,2.682,0,0,0-.39-.917,3.23,3.23,0,0,0-1.868-1.273h.013a3.307,3.307,0,0,0,.867-.481A2.368,2.368,0,0,0,20,10.884a2.044,2.044,0,0,0,.264-1.459A2.729,2.729,0,0,0,19.14,7.743,4.22,4.22,0,0,0,16.632,7a6.634,6.634,0,0,0-1.83.275,10,10,0,0,0-2.121.91,5.112,5.112,0,0,0-2.326-1.069,6.646,6.646,0,0,0-1.319-.128,6.826,6.826,0,0,0-2,.293,4.3,4.3,0,0,0-1.678.928l.588.576a3.384,3.384,0,0,1,1.3-.79A4.959,4.959,0,0,1,8.88,7.715a3.587,3.587,0,0,1,1.707.384,1.869,1.869,0,0,1,1.024,1.262l.03,5.478a3.046,3.046,0,0,1-.875,2.071,2.471,2.471,0,0,1-1.71.673,2.565,2.565,0,0,1-.94-.177,2.466,2.466,0,0,1-.818-.524,2.757,2.757,0,0,1-.8-2.044v-2.4h3.854v-.726H4.472v2.365a4.426,4.426,0,0,0,.4,1.888,3.744,3.744,0,0,0,1.044,1.324,5.076,5.076,0,0,0,3.194,1.035,5.732,5.732,0,0,0,3.556-1.181Zm3.459.5a2.3,2.3,0,0,1-1.669-.676,2.444,2.444,0,0,1-.541-.878,3.71,3.71,0,0,1-.2-1.268h0V12.437l3.024.02a2.035,2.035,0,0,1,1.629.743,2.616,2.616,0,0,1,.537,1.647,2.755,2.755,0,0,1-2.77,2.8h0Zm.517-5.937h0c-.075,0-.153,0-.23-.011H13.7l.013-3.2a5.749,5.749,0,0,1,2.6-.766,2.247,2.247,0,0,1,1.649.621,2.025,2.025,0,0,1,.568,1.365,2,2,0,0,1-.533,1.45A1.824,1.824,0,0,1,16.641,11.705Z" fill="#f03"/>
</svg>
