<svg xmlns="http://www.w3.org/2000/svg" width="15.181" height="20" viewBox="0 0 15.181 20">
  <path id="chair_alt_FILL0_wght300_GRAD0_opsz24_1_" data-name="chair_alt_FILL0_wght300_GRAD0_opsz24 (1)" d="M7.507,20.186V22.9a.854.854,0,0,1-.271.648A.893.893,0,0,1,6.6,23.8a.874.874,0,0,1-.9-.9V16A2.16,2.16,0,0,1,7.869,13.83H9.013V11.36H7.869A2.16,2.16,0,0,1,5.7,9.192V5.969A2.16,2.16,0,0,1,7.869,3.8H18.712a2.16,2.16,0,0,1,2.169,2.169V9.192a2.16,2.16,0,0,1-2.169,2.169H17.567v2.47h1.145A2.16,2.16,0,0,1,20.881,16v6.9a.876.876,0,0,1-.9.9.893.893,0,0,1-.633-.255.854.854,0,0,1-.271-.648V20.186ZM7.869,9.553H18.712a.326.326,0,0,0,.255-.12.367.367,0,0,0,.106-.241V5.969a.36.36,0,0,0-.361-.361H7.869a.358.358,0,0,0-.361.361V9.192a.369.369,0,0,0,.1.241A.33.33,0,0,0,7.869,9.553ZM10.82,13.83h4.94V11.36H10.82ZM7.507,18.378H19.073V16a.36.36,0,0,0-.361-.361H7.869A.358.358,0,0,0,7.507,16Zm0-8.825v0Zm0,8.825v0Z" transform="translate(-5.7 -3.8)" fill="#5b5b5b"/>
</svg>
