<svg width="13" height="16" viewBox="0 0 13 16" fill="none" xmlns="http://www.w3.org/2000/svg">
<path d="M1.25431 7.3834L11.0809 0.634428C11.3597 0.455901 11.7535 0.390025 12.1203 0.460763C12.4869 0.531668 12.7735 0.728804 12.8766 0.980915C12.9794 1.2332 12.8836 1.50407 12.6241 1.69585L3.56927 7.92385L12.6241 14.1518C12.8302 14.292 12.9465 14.4831 12.9465 14.6826C12.9465 14.882 12.8302 15.0731 12.6241 15.2133C12.4193 15.3539 12.1418 15.4329 11.8525 15.4329C11.5632 15.4329 11.2856 15.3539 11.0809 15.2133L1.25431 8.42439C1.0569 8.28509 0.946503 8.09818 0.946503 7.90372C0.946503 7.7091 1.0569 7.5222 1.25431 7.38288L1.25431 7.3834Z" fill="#8F8F8F"/>
</svg>
