<svg xmlns="http://www.w3.org/2000/svg" width="56" height="56" viewBox="0 0 56 56">
  <g id="Group_2713406" data-name="Group 2713406" transform="translate(0 -1584)">
    <circle id="Ellipse_81" data-name="Ellipse 81" cx="28" cy="28" r="28" transform="translate(0 1584)" fill="#f4f5fa"/>
    <g id="Group_2713045" data-name="Group 2713045" transform="translate(15 1596)">
      <path id="Path_108881" data-name="Path 108881" d="M505.362,157.949c0-.011-.008-.019-.011-.03A.263.263,0,0,0,505.362,157.949Z" transform="translate(-483.173 -148.891)"/>
      <path id="Path_108882" data-name="Path 108882" d="M181.5,177.177c.076.943.756,1.543,1.593,1.125a.333.333,0,0,1,.464.331,12.028,12.028,0,0,1-.684,1.916,12.5,12.5,0,0,0-2.3-.753c-.376-.03-.775.285-.464.768.756,1.175-.783,1.46-1.38,1.2-.665-.281-.582-.661-.239-1.384a.422.422,0,0,0-.137-.506c-.7-.616-2.079.106-2.9.449-.011,0-.867-1.806-.437-2.437a.361.361,0,0,1,.441-.1c1.1.506,1.357.2,1.331-.92-.019-.806-.8-.737-1.083-.612-1.007.445-.848-1.635-.334-2.429.008-.011,1.965.829,2.851.433a.506.506,0,0,0,.262-.669,2.641,2.641,0,0,0-.156-.285.742.742,0,0,1,.274-1.03,1.688,1.688,0,0,1,1.08-.148.715.715,0,0,1,.49,1.038c-.114.213-.217.422-.122.612a.364.364,0,0,0,.316.194,5.2,5.2,0,0,0,2.494-.878.032.032,0,0,1,.042.015c.274.859,1.289,1.931.722,2.4-.312.258-.654-.106-.92-.133h0c-.939-.175-1.243,1.251-1.2,1.8Z" transform="translate(-171.598 -162.26)" fill="#f03"/>
      <path id="Path_108883" data-name="Path 108883" d="M505.36,157.92a.262.262,0,0,0,.011.03A.262.262,0,0,1,505.36,157.92Z" transform="translate(-483.182 -148.892)"/>
      <path id="Path_108884" data-name="Path 108884" d="M307.537,184.185c-.494.623-.787.122-1.27.027a.413.413,0,0,0-.471.346c-.224,1.03.509,1.608.779,2.349a2.643,2.643,0,0,1-2.155.958c-.251-.042-.555-.342-.353-.642.665-.984-.011-1.741-1.015-1.764a1.088,1.088,0,0,0-1.03,1.543c.114.285.346.889-.357.882a5.623,5.623,0,0,1-2.136-.593c.19-.76.775-1.585.612-2.384a.525.525,0,0,0-.741-.373c-.707.274-1.167.232-1.239-.7a1.407,1.407,0,0,1,.532-1.35.914.914,0,0,1,.829.156.573.573,0,0,0,.912-.312c.152-.768-.688-1.943-.9-2.669v-.011c.623-.2,2.022-.81,2.517-.251.091.1.152.331.053.426-.874.848.38,2.007,1.247,1.714.327-.11,1.2-.658.741-1.258-.084-.106-.471-.475-.205-.715.707-.627,1.962.03,2.764.278-.258.73-1.015,1.768-.76,2.653a.5.5,0,0,0,.7.274c.452-.323.783-.361.958-.129a1.282,1.282,0,0,1,0,1.54Z" transform="translate(-287.812 -168.931)" fill="#f03"/>
      <path id="Path_108885" data-name="Path 108885" d="M125.728,7.451A1.547,1.547,0,0,1,124.519,8.9a.441.441,0,0,1-.441-.194,2.048,2.048,0,0,1-.217-.688.668.668,0,0,0-.046-.122,1.4,1.4,0,0,0-.1-.175.418.418,0,0,0-.57-.038c-.737.589-.764,1.714-1.125,2.5a2.98,2.98,0,0,1-2.19-1.517c.1-.544.749-.361,1.083-.627.338-.239.072-.81-.334-1.228-.331-.338-.749-.578-1.023-.456-.544.239-.091,1.08-.566,1.49-1.03-.027-1.562-1.368-1.882-2.22a5.918,5.918,0,0,0,1.893-1.209.628.628,0,0,0-.392-.992c-.258-.049-.642.034-.775-.247-.243-.521.255-1.479.916-1.813a.714.714,0,0,1,1.072.547c.392,2.254,1.764-.92,1.939-2.034.673.247,2.182.639,2.524,1.3a.549.549,0,0,1-.346.779c-.316.087-.848-.038-.893.357A1.617,1.617,0,0,0,124.12,3.6a.644.644,0,0,0,.916-.441c.011-.046.023-.091.03-.141a.534.534,0,0,1,.7-.43,1.058,1.058,0,0,1,.319.186,3.584,3.584,0,0,1,.947,1.509c-.544.407-2.429,1.327-2.619,1.916-.293.935,1.2.5,1.319,1.251Z" transform="translate(-117.114 0.125)" fill="#f03"/>
      <path id="Path_108886" data-name="Path 108886" d="M319.256,41.521c-.236.407-.289,1.734.479,1.783a1.59,1.59,0,0,0,.764-.183c.217-.11.669-.038.737.194a3.571,3.571,0,0,1-.677,2.524c-.859-.213-2.634-.958-3.281-.072-.278.38.3.81.361.969a.626.626,0,0,1-.494.806c-.81.171-1.517-.449-.855-1.4a.385.385,0,0,0,.027-.4c-.487-.943-2.452-.365-3.094-.16a3.6,3.6,0,0,1-.418-1.844.578.578,0,0,1,.924-.373c.353.266.646.532,1,.106a1.276,1.276,0,0,0-.331-1.8.473.473,0,0,0-.43-.061c-1.711.791-1.19-1.973-.528-2.908.027-.053,2.463,1.342,3.311.528a.412.412,0,0,0-.087-.593c-.46-.426-.4-.783.038-1.023a1.267,1.267,0,0,1,1.661.217.543.543,0,0,1,.011.586c-.236.376-.684.753-.327,1.121a.252.252,0,0,0,.141.072,6.3,6.3,0,0,0,2.927-.783,5.064,5.064,0,0,1,.278,2.193c-.084.665-.521.342-.627.266-.635-.437-1.122-.445-1.513.232Z" transform="translate(-301.61 -35.268)" fill="#f03"/>
      <path id="Path_108887" data-name="Path 108887" d="M505.362,157.949c0-.011-.008-.019-.011-.03A.263.263,0,0,0,505.362,157.949Z" transform="translate(-483.173 -148.891)"/>
      <path id="Path_108888" data-name="Path 108888" d="M207.711,75.192a2.767,2.767,0,0,1-.654-2.832c.5-1.144.228-1.505-.228-3.288-.452-1.768-2.144-4.9-3.649-5.383a11.642,11.642,0,0,1,.274,1.467c.091.962-.357,1.939-1,1.365-.57-.506-1.076-.384-1.262.027s-.175,1.14.312,1.163c.506.023,1.03-.483,1.57.034s-.084,2.224-.582,3.121a7.8,7.8,0,0,0-.779,1.943c-.175.612-.011.768.2.715.411-.1.711-.46,1.159-.144a1.549,1.549,0,0,1,.239,2c-.471.8-.874.582-1.285.392s-.437.137-.433.327A2.3,2.3,0,0,0,202,77.131c.236.331.715.737.152,1.338a3.563,3.563,0,0,1-2.627.87.736.736,0,0,1-.327-1.11c.57-1.068-.209-1.239-.627-1.289a.829.829,0,0,0-.7,1.3.827.827,0,0,1-.171.988c-.27.293-.741.2-1.718-.019a26.279,26.279,0,0,1-3.182-1.2c-.623-.247-.787.137-.566.467.566.825-.03,1.6-1.289,1.578-1.133-.015-1.566-.791-1.505-1.152.069-.407.4-.935-.061-1.042a3.641,3.641,0,0,0-2.114.62l1.9,2.509-1.9-2.49a14.231,14.231,0,0,0,1.262,2.193,5.993,5.993,0,0,1,1.437,3.037c.125,2.41-.4,4.748-1.889,8.31h13.51a4.17,4.17,0,0,1-.525-1.711A8.377,8.377,0,0,1,201.4,87.1a1.649,1.649,0,0,1,1.543-.977,15.62,15.62,0,0,0,3.76.011c.878-.16.829-1.464.608-2.376s.5-1.1.494-1.475c0-.205.084-.361-.437-.677.95-.517.623-1,.449-1.38-.62-1.361.072-1.353.35-1.464s1.023-.247,1.106-.855-.844-1.749-1.559-2.718Z" transform="translate(-183.256 -60.044)" fill="#036"/>
    </g>
  </g>
</svg>
