<svg xmlns="http://www.w3.org/2000/svg" width="16.482" height="19" viewBox="0 0 16.482 19">
  <g id="calendar" transform="translate(-3 -1.25)">
    <path id="Path_639235" data-name="Path 639235" d="M15.594,3.365V1.937a.687.687,0,0,0-1.374,0V3.31H8.269V1.937a.687.687,0,0,0-1.374,0V3.365A3.889,3.889,0,0,0,3.04,7.257a.46.46,0,0,0,.458.485H18.991a.454.454,0,0,0,.458-.485A3.889,3.889,0,0,0,15.594,3.365Z" transform="translate(-0.003)" fill="#979797"/>
    <path id="Path_639236" data-name="Path 639236" d="M18.566,9.84H3.916A.918.918,0,0,0,3,10.755V16.4c0,2.747,1.374,4.578,4.578,4.578H14.9c3.2,0,4.578-1.831,4.578-4.578V10.755A.918.918,0,0,0,18.566,9.84ZM8.686,17.5a1.443,1.443,0,0,1-.137.11.693.693,0,0,1-.165.082.582.582,0,0,1-.165.055,1.241,1.241,0,0,1-.183.018.911.911,0,0,1-.348-.073.945.945,0,0,1-.3-.192.929.929,0,0,1,0-1.3.945.945,0,0,1,.3-.192.875.875,0,0,1,.531-.055.582.582,0,0,1,.165.055.693.693,0,0,1,.165.082l.137.11a.929.929,0,0,1,0,1.3Zm0-3.2a.919.919,0,0,1-1.3-1.3.915.915,0,0,1,1-.192.855.855,0,0,1,.3.192.929.929,0,0,1,0,1.3Zm3.2,3.2a.929.929,0,1,1,.266-.65A.963.963,0,0,1,11.891,17.5Zm0-3.2-.137.11a.693.693,0,0,1-.165.082.582.582,0,0,1-.165.055,1.241,1.241,0,0,1-.183.018A.919.919,0,0,1,10.591,13a.855.855,0,0,1,.3-.192.915.915,0,0,1,1,.192.929.929,0,0,1,0,1.3Zm3.2,3.2a.929.929,0,1,1,.266-.65A.963.963,0,0,1,15.1,17.5Zm0-3.2-.137.11a.693.693,0,0,1-.165.082.582.582,0,0,1-.165.055,1.376,1.376,0,0,1-.183.018A.919.919,0,0,1,13.8,13a.945.945,0,0,1,.3-.192.875.875,0,0,1,.531-.055.582.582,0,0,1,.165.055.693.693,0,0,1,.165.082L15.1,13a.929.929,0,0,1,0,1.3Z" transform="translate(0 -0.724)" fill="#979797"/>
  </g>
</svg>
