<svg xmlns="http://www.w3.org/2000/svg" width="56" height="56" viewBox="0 0 56 56">
  <g id="Group_2713411" data-name="Group 2713411" transform="translate(229 -1517)">
    <circle id="Ellipse_81" data-name="Ellipse 81" cx="28" cy="28" r="28" transform="translate(-229 1517)" fill="#f4f5fa"/>
    <g id="Group_2713052" data-name="Group 2713052" transform="translate(-217 1529)">
      <path id="Path_108889" data-name="Path 108889" d="M279.12,269.1h-.444a1.332,1.332,0,0,0,.955-.4,1.35,1.35,0,0,0-.955-2.307h-3.752a9.954,9.954,0,0,0,.5-5.316,1.008,1.008,0,0,0-2,.16v.031a7.138,7.138,0,0,1-1.626,3.561l-2.576,2.746V275.6a1.615,1.615,0,0,0,1.616,1.616h7.376a1.332,1.332,0,0,0,.955-.4,1.35,1.35,0,0,0-.955-2.307h.465a1.332,1.332,0,0,0,.955-.4,1.35,1.35,0,0,0-.955-2.307h.444a1.332,1.332,0,0,0,.955-.4,1.35,1.35,0,0,0-.955-2.307Z" transform="translate(-258.269 -245.434)" fill="#036"/>
      <path id="Path_108890" data-name="Path 108890" d="M222.939,32.383l5.006-2.632,5.012,2.632L232,26.808l4.052-3.948-5.6-.815-2.5-5.074-2.5,5.074-5.595.815,4.046,3.948Z" transform="translate(-211.898 -16.971)" fill="#f03"/>
      <path id="Path_108891" data-name="Path 108891" d="M480.927,133.645l-2.906-.423-1.3-2.637-1.3,2.637-2.906.423,2.106,2.049-.5,2.9,2.6-1.368,2.6,1.368-.5-2.9Z" transform="translate(-449.196 -123.673)" fill="#f03"/>
      <path id="Path_108892" data-name="Path 108892" d="M96.808,138.583l2.6-1.368,2.6,1.368-.5-2.9,2.106-2.049-2.906-.423-1.3-2.637-1.3,2.637-2.906.423,2.1,2.049Z" transform="translate(-94.836 -123.667)" fill="#f03"/>
      <path id="Path_108893" data-name="Path 108893" d="M185.065,369.18h-3.174a.575.575,0,0,0-.573.573v9.43a.575.575,0,0,0,.573.573h3.174a.575.575,0,0,0,.573-.573v-9.43A.575.575,0,0,0,185.065,369.18Zm-1.585,9.2a.774.774,0,1,1,.774-.774A.773.773,0,0,1,183.481,378.377Z" transform="translate(-175.713 -347.755)" fill="#036"/>
      <path id="Path_108894" data-name="Path 108894" d="M89.176,392.85h4.573v7.7H89.176Z" transform="translate(-89.176 -369.986)" fill="#036"/>
    </g>
  </g>
</svg>
