<svg id="Group_7454" data-name="Group 7454" xmlns="http://www.w3.org/2000/svg" width="25.41" height="24" viewBox="0 0 25.41 24">
  <path id="Path_75838" data-name="Path 75838" d="M32.871,43.033V22.41H31.206c-4.277.773-8.543,1.487-12.836,2.229V44.146c4.223.746,8.5,1.491,12.751,2.264h1.739V43.033Zm-6.29-4.281a32.9,32.9,0,0,1-1.4-3.5c-.386,1.132-.92,2.2-1.356,3.307-.61,0-1.221-.035-1.831-.058.715-1.4,1.406-2.816,2.144-4.207-.626-1.437-1.318-2.844-1.963-4.269l1.847-.1c.413,1.09.869,2.167,1.213,3.284.386-1.186.916-2.318,1.387-3.446q.947-.066,1.9-.116-1.113,2.287-2.245,4.586c.773,1.545,1.546,3.11,2.318,4.671C27.921,38.845,27.253,38.8,26.581,38.753Z" transform="translate(-18.37 -22.41)" fill="#eb2232"/>
  <path id="Path_75839" data-name="Path 75839" d="M57.72,29.33v1.48h2.956v2.183H57.72v1.2h2.956v2.183H57.72v1.2h2.956V39.75H57.72v1.2h2.956v2.164H57.72v1.267h2.956v2.113H57.72v1.48H67.928V29.33Zm7.956,17.177h-4.3V44.394h4.3Zm0-3.381h-4.3V40.944h4.3Zm0-3.381h-4.3V37.567h4.3Zm0-3.381h-4.3V34.186h4.3Zm0-3.381h-4.3V30.81h4.3Z" transform="translate(-42.518 -26.657)" fill="#eb2232"/>
</svg>
