<svg id="Logo-version-1-on-white_bg" data-name="Logo-version-1-on-white bg" xmlns="http://www.w3.org/2000/svg" width="239.137" height="48" viewBox="0 0 239.137 48">
  <g id="Group_3" data-name="Group 3" transform="translate(64 12)">
    <g id="Logo" transform="translate(0 0)">
      <g id="Group_1337" data-name="Group 1337" transform="translate(0)">
        <path id="Path_212" data-name="Path 212" d="M288.138,341.31h0a6.439,6.439,0,0,0,4.74,2.4,4.813,4.813,0,0,0,1.032-.107,2.569,2.569,0,0,0,.827-.337,1.8,1.8,0,0,0,.547-.6,1.852,1.852,0,0,0,.2-.881,1.291,1.291,0,0,0-.161-.672,1.825,1.825,0,0,0-.433-.515,3.152,3.152,0,0,0-.6-.384,4.313,4.313,0,0,0-.66-.286c-.409-.157-.819-.315-1.225-.449s-.8-.279-1.218-.447c-.23-.077-.512-.178-.832-.3a9.374,9.374,0,0,1-1.032-.453,8.2,8.2,0,0,1-1.032-.629,4.813,4.813,0,0,1-.922-.881,4.39,4.39,0,0,1-.668-1.168,4.057,4.057,0,0,1-.254-1.5,3.267,3.267,0,0,1,.523-1.846,4.423,4.423,0,0,1,1.4-1.346,6.8,6.8,0,0,1,1.971-.8,9.371,9.371,0,0,1,2.269-.27,12.419,12.419,0,0,1,3.38.423,7.8,7.8,0,0,1,2.78,1.417L297,334.348c-.309-.3-.608-.569-.908-.811a5.718,5.718,0,0,0-.935-.615,4.832,4.832,0,0,0-1.08-.389,6.338,6.338,0,0,0-1.334-.127,3.636,3.636,0,0,0-1.08.145,2.3,2.3,0,0,0-.743.394,1.553,1.553,0,0,0-.423.571,1.686,1.686,0,0,0-.137.672,1.184,1.184,0,0,0,.193.672,1.966,1.966,0,0,0,.505.5,3.38,3.38,0,0,0,.687.367c.261.1.523.2.792.283.42.157.847.3,1.27.438s.847.286,1.265.431c.209.08.465.168.768.279a7.258,7.258,0,0,1,.925.411,6.052,6.052,0,0,1,.953.612,4.244,4.244,0,0,1,.85.858,4.334,4.334,0,0,1,.6,1.177,4.526,4.526,0,0,1,.236,1.547,3.44,3.44,0,0,1-.557,1.94,4.683,4.683,0,0,1-1.458,1.405,7.194,7.194,0,0,1-2.063.861,9.6,9.6,0,0,1-2.369.29,17.785,17.785,0,0,1-2.036-.115,9.674,9.674,0,0,1-1.82-.4,7.546,7.546,0,0,1-1.643-.754,7.318,7.318,0,0,1-1.47-1.2ZM273.207,330.1h0v10.846a2.811,2.811,0,0,0,.19,1.086,2.012,2.012,0,0,0,.5.74,1.853,1.853,0,0,0,.743.417,3.015,3.015,0,0,0,.919.127,10.186,10.186,0,0,0,2.293-.27A7.273,7.273,0,0,0,280,342.2V330.1h3.915V343.17a9.038,9.038,0,0,0,.092,1.094c.055.472.148,1.029.266,1.665h-3.7c-.021-.06-.055-.168-.1-.337s-.092-.337-.142-.521-.085-.359-.127-.524a3.2,3.2,0,0,1-.072-.37,7.479,7.479,0,0,1-1.146.814,8.668,8.668,0,0,1-1.334.645,8.451,8.451,0,0,1-1.4.417,6.447,6.447,0,0,1-1.348.148,7.232,7.232,0,0,1-2.686-.423,4.216,4.216,0,0,1-2.64-2.937,8.441,8.441,0,0,1-.266-2.172V330.1Zm-17.774,13.325h0a9.459,9.459,0,0,0,1.465.359,10.675,10.675,0,0,0,1.719.142,3.529,3.529,0,0,0,1.685-.414,3.843,3.843,0,0,0,1.313-1.195,5.989,5.989,0,0,0,.868-1.908,9.708,9.708,0,0,0,.306-2.543,9.213,9.213,0,0,0-.227-2.106,4.525,4.525,0,0,0-.7-1.621,3.243,3.243,0,0,0-1.218-1.039,4.027,4.027,0,0,0-1.782-.367,7.885,7.885,0,0,0-.965.064c-.322.047-.633.107-.935.18a7.059,7.059,0,0,0-.847.255,4.018,4.018,0,0,0-.687.337Zm-3.893-20.458h3.893v8.327a6.938,6.938,0,0,1,2.022-1.033,8.023,8.023,0,0,1,2.6-.4,6.919,6.919,0,0,1,3.143.672,6.012,6.012,0,0,1,2.118,1.778,7.353,7.353,0,0,1,1.207,2.567,11.929,11.929,0,0,1,.381,3.025,9.089,9.089,0,0,1-.687,3.7,7.683,7.683,0,0,1-1.819,2.6,7.4,7.4,0,0,1-2.542,1.533,8.773,8.773,0,0,1-2.871.5q-1.127,0-2.063-.024c-.629-.017-1.238-.038-1.819-.064s-1.167-.071-1.74-.128-1.177-.124-1.806-.208Zm-10.5,20.731h0a2.8,2.8,0,0,0,1.721-.532,4.022,4.022,0,0,0,1.18-1.393,6.96,6.96,0,0,0,.687-1.95,10.5,10.5,0,0,0,.227-2.2,9.571,9.571,0,0,0-.2-1.973,4.8,4.8,0,0,0-.671-1.624,3.366,3.366,0,0,0-1.2-1.1A3.605,3.605,0,0,0,241,332.5a3.277,3.277,0,0,0-1.667.423,3.632,3.632,0,0,0-1.207,1.168,5.677,5.677,0,0,0-.726,1.759,9.349,9.349,0,0,0-.031,4.171,6.3,6.3,0,0,0,.687,1.819,4.114,4.114,0,0,0,1.214,1.346,3.038,3.038,0,0,0,1.77.5Zm.13,2.636h0a9.511,9.511,0,0,1-3.5-.6,6.928,6.928,0,0,1-2.553-1.707,7.293,7.293,0,0,1-1.567-2.676,10.634,10.634,0,0,1-.541-3.478,9.6,9.6,0,0,1,.493-3.08,7.016,7.016,0,0,1,4.029-4.294,9.165,9.165,0,0,1,3.578-.642,8.88,8.88,0,0,1,3.541.642,6.687,6.687,0,0,1,2.445,1.769,7.167,7.167,0,0,1,1.416,2.636,11.294,11.294,0,0,1,.457,3.247,9.4,9.4,0,0,1-.533,3.178,7.789,7.789,0,0,1-1.545,2.6,7.387,7.387,0,0,1-2.456,1.756,7.954,7.954,0,0,1-3.261.645ZM225.63,322.962h3.893V342.1a1.687,1.687,0,0,0,.248,1.056.828.828,0,0,0,.688.315,2.3,2.3,0,0,0,.838-.134c.23-.084.5-.192.8-.305l.66,1.961a6.525,6.525,0,0,1-.819.472,7.533,7.533,0,0,1-.925.389,8.381,8.381,0,0,1-1.007.272,5.36,5.36,0,0,1-1.032.1,5.83,5.83,0,0,1-1.244-.134,2.486,2.486,0,0,1-1.064-.509,2.578,2.578,0,0,1-.753-1.029,4.373,4.373,0,0,1-.278-1.7Zm-2.549,21.43c-.544.286-1.1.545-1.675.787a13.569,13.569,0,0,1-1.9.629,17.426,17.426,0,0,1-2.308.411,25.492,25.492,0,0,1-2.9.148,10.29,10.29,0,0,1-3.209-.472,8.85,8.85,0,0,1-4.506-3.263,11.046,11.046,0,0,1-1.355-2.461,14.379,14.379,0,0,1-.8-2.792,16.785,16.785,0,0,1-.261-2.963,15.14,15.14,0,0,1,.322-3.094,13.478,13.478,0,0,1,.925-2.852,11.428,11.428,0,0,1,1.532-2.458,9.732,9.732,0,0,1,4.77-3.186,10.619,10.619,0,0,1,3.192-.458c.568,0,1.09.017,1.562.047a11.7,11.7,0,0,1,1.313.157,7.228,7.228,0,0,1,1.162.3,8.267,8.267,0,0,1,1.11.472,9.829,9.829,0,0,1,1.159.689q.6.4,1.321.944l-2.175,2.929a15.013,15.013,0,0,0-1.449-1.16,6.84,6.84,0,0,0-1.321-.734,6.043,6.043,0,0,0-1.348-.384,9.977,9.977,0,0,0-1.552-.107,5.308,5.308,0,0,0-2.641.65,5.845,5.845,0,0,0-1.939,1.792,8.365,8.365,0,0,0-1.189,2.667,12.742,12.742,0,0,0-.406,3.293,16.909,16.909,0,0,0,.344,3.521,9.516,9.516,0,0,0,1.114,2.963,6.076,6.076,0,0,0,1.972,2.046,5.353,5.353,0,0,0,2.9.76,7.967,7.967,0,0,0,1-.044c.354-.044.708-.071,1.07-.124s.715-.118,1.059-.192.663-.148.965-.225v-7.771h4.124Z" transform="translate(-204.166 -322.367)" fill="#036" fill-rule="evenodd"/>
        <path id="Path_211" data-name="Path 211" d="M565.992,337.866h0l5.452-6.023h5.023l-7.589,7.274,8.082,9.026h-4.812L566,341.094v7.049h-4.019V324.48H566Zm-21.857-3.229h0c0-.324,0-.737-.028-1.25a9.362,9.362,0,0,0-.166-1.545h3.785a2.523,2.523,0,0,1,.091.295c.028.123.06.263.1.405s.068.3.095.454.046.3.068.432a6.563,6.563,0,0,1,.9-.665,7.727,7.727,0,0,1,2.5-1.018,7.03,7.03,0,0,1,1.521-.162,7.309,7.309,0,0,1,2.413.392,5.68,5.68,0,0,1,1.946,1.135,5.332,5.332,0,0,1,1.309,1.815,5.929,5.929,0,0,1,.479,2.431v10.793h-4.027V338.1a5.979,5.979,0,0,0-.2-1.66,2.714,2.714,0,0,0-.6-1.1,2.243,2.243,0,0,0-.964-.6,4.226,4.226,0,0,0-1.315-.191,6.413,6.413,0,0,0-.929.073,7.068,7.068,0,0,0-1.01.2,10.2,10.2,0,0,0-1.017.324,6.587,6.587,0,0,0-.936.406V348.16h-4.016Zm-8.271,5h0a14,14,0,0,0-2.942.375,5.352,5.352,0,0,0-1.825.793,2.629,2.629,0,0,0-.939,1.146,3.883,3.883,0,0,0-.259,1.441,3.3,3.3,0,0,0,.153,1.105,1.725,1.725,0,0,0,.439.71,1.625,1.625,0,0,0,.708.381,3.181,3.181,0,0,0,.879.114c.29,0,.585-.018.886-.042a5.921,5.921,0,0,0,.939-.177,6.113,6.113,0,0,0,.967-.347,6.312,6.312,0,0,0,1-.572Zm-9.77-5.574h0a9.462,9.462,0,0,1,3.123-1.82,11.057,11.057,0,0,1,3.8-.658,10.873,10.873,0,0,1,2.581.3,7.123,7.123,0,0,1,2.194.914,4.745,4.745,0,0,1,1.528,1.593,4.489,4.489,0,0,1,.57,2.3v7.274a5.135,5.135,0,0,0,.063.887,1.308,1.308,0,0,0,.206.555.815.815,0,0,0,.379.292,1.735,1.735,0,0,0,.574.08,4.142,4.142,0,0,0,.464-.045q.355-.049.649-.1l.433,1.733c-.247.149-.5.287-.758.423a5.5,5.5,0,0,1-.829.347,6.559,6.559,0,0,1-.954.238,7.164,7.164,0,0,1-1.141.093,3.444,3.444,0,0,1-1.936-.527,2.306,2.306,0,0,1-1-1.486,7.224,7.224,0,0,1-1.343.972,7.583,7.583,0,0,1-1.4.621,7.949,7.949,0,0,1-1.418.324,11.659,11.659,0,0,1-1.365.092,6.838,6.838,0,0,1-2.024-.292,4.128,4.128,0,0,1-1.531-.856,3.74,3.74,0,0,1-.975-1.386,5.219,5.219,0,0,1-.353-1.956,5.648,5.648,0,0,1,.393-2.193,4.886,4.886,0,0,1,1.088-1.621,5.926,5.926,0,0,1,1.659-1.122,9.923,9.923,0,0,1,2.095-.692,17.388,17.388,0,0,1,2.4-.363q1.265-.1,2.578-.1v-.588a3.711,3.711,0,0,0-.227-1.386,2.537,2.537,0,0,0-.64-.939,2.756,2.756,0,0,0-.982-.533,4.374,4.374,0,0,0-1.265-.173,5.669,5.669,0,0,0-1.113.1,4.34,4.34,0,0,0-1.063.347,6.717,6.717,0,0,0-1.1.665,13.79,13.79,0,0,0-1.272,1.066Zm-14.356-6.522h0v7.018h2.254a9.131,9.131,0,0,0,2.077-.211,4.671,4.671,0,0,0,1.6-.648,3.081,3.081,0,0,0,1.01-1.118,3.4,3.4,0,0,0,.355-1.59,4.1,4.1,0,0,0-.262-1.527,2.346,2.346,0,0,0-.886-1.07,4.54,4.54,0,0,0-1.645-.634,12.958,12.958,0,0,0-2.538-.211Zm0,10.069h0V345.1H515a6.9,6.9,0,0,0,2.2-.314,4.715,4.715,0,0,0,1.547-.841,3.313,3.313,0,0,0,.9-1.164,3.1,3.1,0,0,0,.294-1.3,3.883,3.883,0,0,0-.294-1.5,3.194,3.194,0,0,0-.91-1.23,4.644,4.644,0,0,0-1.584-.833,7.726,7.726,0,0,0-2.322-.308Zm3.484-13.127a12.647,12.647,0,0,1,3.3.4,7.632,7.632,0,0,1,2.488,1.154,5.3,5.3,0,0,1,1.587,1.856,5.563,5.563,0,0,1,.552,2.522,4.293,4.293,0,0,1-.355,1.733,5.768,5.768,0,0,1-.979,1.551,6.46,6.46,0,0,1-1.452,1.219,6.383,6.383,0,0,1-1.772.765,8.429,8.429,0,0,1,1.942.6,6.579,6.579,0,0,1,1.825,1.194,6.005,6.005,0,0,1,1.362,1.832,5.564,5.564,0,0,1,.533,2.511,5.459,5.459,0,0,1-.539,2.349,5.919,5.919,0,0,1-1.61,2.019,7.984,7.984,0,0,1-2.641,1.414,11.283,11.283,0,0,1-3.649.533h-8.34V324.471Z" transform="translate(-401.823 -323.589)" fill="#036" fill-rule="evenodd"/>
      </g>
    </g>
  </g>
  <g id="Group_4644" data-name="Group 4644">
    <path id="Path_60324" data-name="Path 60324" d="M40.547,281.66a24,24,0,1,1-16.995,7.016,24,24,0,0,1,16.995-7.016" transform="translate(-16.51 -281.66)" fill="#f03" fill-rule="evenodd"/>
    <path id="Path_60325" data-name="Path 60325" d="M61.262,339.078h0v-4.52l5.735.037c2.761.019,4.106,2.226,4.106,4.533,0,6.379-9.825,7.745-9.835-.05m0-11.989h0c10.579-5.551,11.513,6.644,5.124,6.061H61.243Zm9.218,6.619c7.584-2.9,1.245-14.212-11.167-7.216a9.676,9.676,0,0,0-4.412-2.027c-3.066-.623-7.179-.081-9.486,2.074l1.114,1.093a8.319,8.319,0,0,1,8.81-1.3,3.573,3.573,0,0,1,1.943,2.394l.056,10.389h0c-.455,7.216-9.751,6.659-9.748,0v-4.557h7.31v-1.375H43.75v4.486c.028,8.527,10.4,9.962,15.538,5.812,1.476,1.348,4.38,2.26,7.285,2.241,9.209-.062,11.105-9.994,3.889-12.014Z" transform="translate(-35.117 -310.881)" fill="#fff" fill-rule="evenodd"/>
  </g>
</svg>
