<svg width="28" height="35" viewBox="0 0 168 182" fill="none" xmlns="http://www.w3.org/2000/svg">
<path d="M25.5285 171.778C26.1582 174.647 27.7385 177.216 30.0123 179.072C32.286 180.928 35.1201 181.959 38.0532 182C38.8739 182 39.6918 181.915 40.4935 181.744L147.884 160.729V160.73C150.898 159.961 153.56 158.188 155.434 155.703C158.785 155.638 161.976 154.261 164.325 151.869C166.674 149.476 167.993 146.258 168 142.905V13.1841C167.996 9.78329 166.643 6.52355 164.241 4.11887C161.838 1.71565 158.58 0.36299 155.184 0.358826H46.0502C42.6539 0.362892 39.3973 1.71565 36.9949 4.12026C34.5926 6.52348 33.2412 9.78322 33.237 13.1841V24.7325L10.6251 29.2177C7.32633 29.8901 4.42702 31.8433 2.56092 34.6503C0.694888 37.4561 0.0150782 40.8882 0.669168 44.1941L25.5285 171.778ZM155.182 147.632H46.0512C44.7945 147.646 43.5852 147.153 42.6956 146.262C41.8072 145.373 41.3143 144.162 41.3279 142.905V139.399L67.7396 107.44L88.1552 130.216C88.9663 131.136 90.1566 131.63 91.3821 131.554C92.6063 131.487 93.7343 130.869 94.4507 129.873L126.664 84.9926L159.911 131.514V142.901L159.912 142.903C159.924 144.161 159.43 145.371 158.541 146.261C157.651 147.151 156.442 147.644 155.185 147.63L155.182 147.632ZM41.3261 13.1855C41.3126 11.9276 41.8055 10.7172 42.6938 9.82666C43.5835 8.93748 44.7928 8.44274 46.0494 8.45766H155.183C156.44 8.44275 157.651 8.93613 158.54 9.82666C159.429 10.7158 159.923 11.9263 159.911 13.1855V117.596L129.961 75.6898C129.201 74.6285 127.978 73.9995 126.674 73.9968H126.67C125.367 73.9968 124.144 74.6244 123.383 75.683L90.8144 121.06L70.6239 98.5347H70.6253C69.8222 97.6795 68.7037 97.1928 67.5323 97.1901C66.3556 97.2145 65.2479 97.7513 64.499 98.6594L41.3265 126.698L41.3261 13.1855ZM12.244 37.1511L33.2363 32.9885V142.906C33.2404 146.306 34.5919 149.565 36.9942 151.97C39.3951 154.375 42.6532 155.727 46.0494 155.73H131.302L38.8839 173.812C36.3963 174.231 34.0142 172.633 33.4537 170.17L8.59392 42.5899C8.1809 40.0958 9.78017 37.7115 12.2433 37.1518L12.244 37.1511Z" fill="#FF0032"/>
<path d="M88.1087 82.1425C92.4989 82.1439 96.7102 80.398 99.8156 77.2915C102.921 74.1835 104.665 69.9692 104.665 65.5735C104.666 61.1791 102.922 56.9638 99.817 53.8554C96.7132 50.7474 92.5016 49.0016 88.1115 49.0016C83.7199 49.0016 79.51 50.7475 76.4046 53.8554C73.2995 56.9621 71.5554 61.1777 71.5554 65.5721C71.5608 69.965 73.3063 74.1765 76.4101 77.2832C79.5125 80.3885 83.7199 82.1369 88.1087 82.1425V82.1425ZM88.1087 57.0977C90.3539 57.0977 92.5072 57.9896 94.0956 59.5796C95.684 61.1681 96.5764 63.3233 96.5764 65.5708C96.5764 67.8181 95.6854 69.9745 94.097 71.5634C92.5099 73.1533 90.3568 74.0466 88.1114 74.0466C85.8649 74.0466 83.7119 73.1547 82.1245 71.5648C80.5361 69.9762 79.6437 67.8196 79.6437 65.5721C79.6464 63.3261 80.5401 61.1722 82.1259 59.5837C83.713 57.9951 85.8647 57.1019 88.1087 57.0978L88.1087 57.0977Z" fill="#FF0032"/>
<path d="M124.796 26.1207H142.285V27.5467C142.285 29.7818 144.096 31.594 146.329 31.594C148.563 31.594 150.374 29.7818 150.374 27.5467V22.0735C150.374 20.9986 149.949 19.9699 149.189 19.2108C148.43 18.4504 147.403 18.0248 146.329 18.0248H124.796C122.562 18.0248 120.751 19.837 120.751 22.0735C120.751 24.3087 122.562 26.1209 124.796 26.1209V26.1207Z" fill="#FF0032"/>
<path d="M145.524 35.5549C145.27 35.5996 145.024 35.6809 144.794 35.7975C144.536 35.8856 144.291 36.0076 144.066 36.1608C143.855 36.3126 143.652 36.4739 143.458 36.6474C141.894 38.2441 141.894 40.7992 143.458 42.3957C143.664 42.557 143.865 42.7196 144.066 42.8823C144.291 43.0355 144.536 43.1574 144.794 43.2456C145.022 43.3635 145.269 43.4448 145.524 43.4882C145.79 43.5356 146.06 43.5627 146.329 43.5695C147.965 43.5627 149.437 42.576 150.064 41.0633C150.691 39.5519 150.351 37.8115 149.201 36.6471C148.23 35.6969 146.854 35.2875 145.523 35.5546L145.524 35.5549Z" fill="#FF0032"/>
<path d="M128.211 104.253C127.227 103.848 126.122 103.848 125.137 104.253C124.628 104.437 124.169 104.742 123.803 105.142C123.042 105.888 122.618 106.911 122.629 107.976C122.618 109.054 123.041 110.091 123.803 110.851C124.567 111.606 125.6 112.029 126.674 112.025C127.738 112.035 128.761 111.612 129.506 110.851C130.277 110.094 130.714 109.058 130.719 107.976C130.714 106.907 130.276 105.885 129.506 105.142C129.145 104.753 128.704 104.448 128.211 104.253H128.211Z" fill="#FF0032"/>
<path d="M69.8533 123.404C69.6461 123.244 69.4145 123.12 69.1653 123.038C68.9243 122.916 68.6643 122.834 68.3962 122.796C67.6081 122.635 66.7888 122.719 66.0494 123.038C65.5673 123.236 65.1272 123.524 64.7535 123.888C64.3675 124.267 64.0655 124.721 63.8651 125.224C63.486 126.215 63.486 127.311 63.8651 128.302C64.0845 128.794 64.3851 129.246 64.7535 129.639C65.5254 130.383 66.5532 130.803 67.6257 130.813C67.8843 130.804 68.1416 130.777 68.3962 130.731C68.6643 130.692 68.9243 130.611 69.1667 130.489C69.4145 130.406 69.6461 130.283 69.8533 130.123C70.07 129.98 70.2717 129.818 70.4573 129.637C71.2332 128.882 71.6706 127.846 71.6706 126.763C71.6706 125.68 71.2332 124.643 70.4573 123.888C70.2826 123.696 70.0781 123.532 69.8533 123.404H69.8533Z" fill="#FF0032"/>
</svg>
