<svg xmlns="http://www.w3.org/2000/svg" width="23.958" height="23.958" viewBox="0 0 23.958 23.958">
  <g id="noun-information-3344405" transform="translate(0)">
    <path id="Path_145821" data-name="Path 145821" d="M90.459,32.438a11.979,11.979,0,1,1,11.979-11.979A11.993,11.993,0,0,1,90.459,32.438Zm0-22.22A10.241,10.241,0,1,0,100.7,20.459,10.253,10.253,0,0,0,90.459,10.217Z" transform="translate(-78.48 -8.48)" fill="#f89946"/>
    <g id="Group_153055" data-name="Group 153055" transform="translate(8.602 2.928)">
      <path id="Path_145822" data-name="Path 145822" d="M291.924,203.855c-.083-.032-.172-.083-.172-.3a1.329,1.329,0,0,1,.046-.319l1.358-6.581a2.446,2.446,0,0,0,.046-.478,1.184,1.184,0,0,0-.39-.963c-.58-.476-1.594-.383-3.281.187l-.163.055-.067.849h.283a3.422,3.422,0,0,1,1.109.088.143.143,0,0,1,.089.157.935.935,0,0,1-.02.181c-.018.089-.037.193-.057.3l-1.244,6.044a4.3,4.3,0,0,0-.087.774,1.437,1.437,0,0,0,.41,1.1,1.55,1.55,0,0,0,1.086.37,7.532,7.532,0,0,0,2.173-.449l.167-.054.067-.86h-.283a3.3,3.3,0,0,1-1.069-.113Z" transform="translate(-288.16 -189.151)" fill="#f89946"/>
      <path id="Path_145823" data-name="Path 145823" d="M341.993,102.141a1.216,1.216,0,0,0-.868-.327,1.228,1.228,0,0,0-1.271,1.29,1.193,1.193,0,0,0,1.226,1.234,1.224,1.224,0,0,0,.9-.368,1.288,1.288,0,0,0,.361-.94,1.171,1.171,0,0,0-.348-.889Z" transform="translate(-336.727 -99.892)" fill="#f89946"/>
    </g>
  </g>
</svg>
