<svg id="instagram" xmlns="http://www.w3.org/2000/svg" width="35" height="35" viewBox="0 0 35 35">
  <g id="Ellipse_223" data-name="Ellipse 223" fill="none" stroke="#5b5b5b" stroke-width="1">
    <circle cx="17.5" cy="17.5" r="17.5" stroke="none"/>
    <circle cx="17.5" cy="17.5" r="17" fill="none"/>
  </g>
  <path id="Path_187742" data-name="Path 187742" d="M7.727,3A4.732,4.732,0,0,0,3,7.727v6.545A4.732,4.732,0,0,0,7.727,19h6.545A4.732,4.732,0,0,0,19,14.273V7.727A4.732,4.732,0,0,0,14.273,3Zm7.636,2.909a.727.727,0,1,1-.727.727.727.727,0,0,1,.727-.727ZM11,7a4,4,0,1,1-4,4,4,4,0,0,1,4-4Zm0,.727A3.273,3.273,0,1,0,14.273,11,3.273,3.273,0,0,0,11,7.727Z" transform="translate(7 7)" fill="#5b5b5b"/>
</svg>
