<svg xmlns="http://www.w3.org/2000/svg" width="36" height="36" viewBox="0 0 36 36">
  <g id="Group_5704" data-name="Group 5704" transform="translate(0.033 -0.017)">
    <circle id="Ellipse_204" data-name="Ellipse 204" cx="18" cy="18" r="18" transform="translate(-0.033 0.017)" fill="#f0f0f0"/>
    <path id="document" d="M13.358,2H6.65A4.272,4.272,0,0,0,2,6.65v6.7a4.274,4.274,0,0,0,4.65,4.658h6.7A4.272,4.272,0,0,0,18,13.358V6.65A4.262,4.262,0,0,0,13.358,2Zm-.352,11.005H7a.6.6,0,1,1,0-1.2h6a.6.6,0,0,1,0,1.2Zm0-4.8H7A.6.6,0,1,1,7,7h6a.6.6,0,1,1,0,1.2Z" transform="translate(7.967 8.013)" fill="#3c3c3c"/>
  </g>
</svg>
