<svg id="linkedin" xmlns="http://www.w3.org/2000/svg" width="35" height="35" viewBox="0 0 35 35">
  <g id="Ellipse_224" data-name="Ellipse 224" fill="none" stroke="#5b5b5b" stroke-width="1">
    <circle cx="17.5" cy="17.5" r="17.5" stroke="none"/>
    <circle cx="17.5" cy="17.5" r="17" fill="none"/>
  </g>
  <path id="Path_187743" data-name="Path 187743" d="M18.1,4H5.9A1.905,1.905,0,0,0,4,5.9V18.1A1.9,1.9,0,0,0,5.9,20H18.1A1.905,1.905,0,0,0,20,18.1V5.9A1.905,1.905,0,0,0,18.1,4ZM8.952,10.1v7.238H6.667V10.1ZM6.667,7.989A1.015,1.015,0,0,1,7.81,7.048a1.031,1.031,0,0,1,1.143.941,1.014,1.014,0,0,1-1.143.964,1.031,1.031,0,0,1-1.143-.964Zm10.667,9.345H15.048v-3.81a1.37,1.37,0,0,0-1.333-1.539h-.03c-.922,0-1.3.785-1.3,1.539v3.81H10.1V10.1h2.286v.975A2.853,2.853,0,0,1,14.6,10.1c1.512,0,2.739,1.04,2.739,3.147Z" transform="translate(6 6)" fill="#5b5b5b"/>
</svg>
