<svg id="Logo-version-2-on-blue_bg" data-name="Logo-version-2-on-blue bg" xmlns="http://www.w3.org/2000/svg" width="228.273" height="40" viewBox="0 0 228.273 40">
  <g id="Group_3" data-name="Group 3" transform="translate(53.333 7.409)">
    <g id="Logo" transform="translate(0 0)">
      <g id="Group_1337" data-name="Group 1337" transform="translate(0)">
        <path id="Path_212" data-name="Path 212" d="M291.637,342.1h0a6.707,6.707,0,0,0,4.937,2.5,5.012,5.012,0,0,0,1.075-.111,2.678,2.678,0,0,0,.862-.351,1.878,1.878,0,0,0,.57-.624,1.93,1.93,0,0,0,.208-.918,1.345,1.345,0,0,0-.167-.7,1.9,1.9,0,0,0-.451-.536,3.283,3.283,0,0,0-.624-.4,4.493,4.493,0,0,0-.687-.3c-.426-.164-.853-.328-1.276-.468s-.838-.29-1.269-.465c-.24-.08-.533-.185-.867-.312a9.767,9.767,0,0,1-1.075-.472,8.538,8.538,0,0,1-1.075-.655,5.013,5.013,0,0,1-.96-.918,4.573,4.573,0,0,1-.7-1.217,4.225,4.225,0,0,1-.265-1.562,3.4,3.4,0,0,1,.545-1.923,4.607,4.607,0,0,1,1.455-1.4,7.086,7.086,0,0,1,2.054-.838,9.764,9.764,0,0,1,2.364-.281,12.938,12.938,0,0,1,3.521.441,8.13,8.13,0,0,1,2.9,1.476l-1.844,2.777c-.322-.312-.634-.593-.945-.844a5.957,5.957,0,0,0-.974-.641,5.031,5.031,0,0,0-1.125-.406,6.6,6.6,0,0,0-1.39-.133,3.788,3.788,0,0,0-1.125.151,2.391,2.391,0,0,0-.774.41,1.618,1.618,0,0,0-.441.6,1.756,1.756,0,0,0-.142.7,1.234,1.234,0,0,0,.2.7,2.05,2.05,0,0,0,.526.521,3.521,3.521,0,0,0,.716.382c.272.108.545.207.825.295.438.164.882.308,1.323.456s.882.3,1.318.449c.218.084.484.175.8.29a7.558,7.558,0,0,1,.964.428,6.3,6.3,0,0,1,.992.637,4.419,4.419,0,0,1,.885.894,4.517,4.517,0,0,1,.627,1.226,4.716,4.716,0,0,1,.246,1.612,3.584,3.584,0,0,1-.58,2.021,4.88,4.88,0,0,1-1.519,1.464,7.493,7.493,0,0,1-2.149.9,10.006,10.006,0,0,1-2.468.3,18.522,18.522,0,0,1-2.121-.12,10.077,10.077,0,0,1-1.9-.413,7.863,7.863,0,0,1-1.712-.785,7.625,7.625,0,0,1-1.532-1.248Zm-15.553-11.68h0v11.3a2.929,2.929,0,0,0,.2,1.131,2.1,2.1,0,0,0,.523.771,1.93,1.93,0,0,0,.774.435,3.141,3.141,0,0,0,.957.133,10.611,10.611,0,0,0,2.389-.281,7.574,7.574,0,0,0,2.231-.876V330.419h4.078v13.618a9.411,9.411,0,0,0,.1,1.139c.057.492.154,1.072.277,1.735h-3.855c-.022-.062-.057-.175-.1-.351s-.1-.351-.147-.543-.089-.374-.132-.546a3.348,3.348,0,0,1-.075-.385,7.79,7.79,0,0,1-1.194.847,9.025,9.025,0,0,1-1.39.672,8.8,8.8,0,0,1-1.462.434,6.714,6.714,0,0,1-1.4.154,7.533,7.533,0,0,1-2.8-.441,4.391,4.391,0,0,1-2.75-3.059,8.794,8.794,0,0,1-.277-2.262V330.421ZM257.569,344.3h0a9.852,9.852,0,0,0,1.526.374,11.125,11.125,0,0,0,1.79.148,3.676,3.676,0,0,0,1.755-.431,4,4,0,0,0,1.368-1.244,6.238,6.238,0,0,0,.9-1.987,10.112,10.112,0,0,0,.319-2.649,9.6,9.6,0,0,0-.236-2.193,4.716,4.716,0,0,0-.734-1.689,3.379,3.379,0,0,0-1.269-1.082,4.2,4.2,0,0,0-1.856-.382,8.214,8.214,0,0,0-1.006.067c-.335.049-.659.111-.974.187a7.347,7.347,0,0,0-.882.266,4.185,4.185,0,0,0-.716.351Zm-4.055-21.311h4.055v8.674a7.227,7.227,0,0,1,2.106-1.076,8.356,8.356,0,0,1,2.7-.42,7.207,7.207,0,0,1,3.274.7,6.262,6.262,0,0,1,2.206,1.852,7.659,7.659,0,0,1,1.257,2.674,12.425,12.425,0,0,1,.4,3.151,9.467,9.467,0,0,1-.716,3.854,8,8,0,0,1-1.894,2.708,7.712,7.712,0,0,1-2.648,1.6,9.14,9.14,0,0,1-2.991.518q-1.173,0-2.149-.025c-.655-.018-1.289-.039-1.894-.067s-1.215-.074-1.812-.133-1.226-.129-1.881-.216Zm-10.94,21.6h0a2.911,2.911,0,0,0,1.792-.554,4.19,4.19,0,0,0,1.229-1.451,7.251,7.251,0,0,0,.716-2.031,10.939,10.939,0,0,0,.236-2.3,9.969,9.969,0,0,0-.208-2.056,5,5,0,0,0-.7-1.692,3.506,3.506,0,0,0-1.247-1.148,3.756,3.756,0,0,0-1.862-.431,3.413,3.413,0,0,0-1.737.441,3.783,3.783,0,0,0-1.257,1.217,5.914,5.914,0,0,0-.756,1.833,9.739,9.739,0,0,0-.032,4.344,6.565,6.565,0,0,0,.716,1.9,4.286,4.286,0,0,0,1.264,1.4,3.164,3.164,0,0,0,1.844.525Zm.136,2.746h0a9.906,9.906,0,0,1-3.643-.626,7.217,7.217,0,0,1-2.659-1.779,7.6,7.6,0,0,1-1.633-2.787,11.078,11.078,0,0,1-.563-3.623,10,10,0,0,1,.513-3.208,7.308,7.308,0,0,1,4.2-4.473,9.548,9.548,0,0,1,3.727-.669,9.25,9.25,0,0,1,3.688.669,6.965,6.965,0,0,1,2.547,1.843,7.465,7.465,0,0,1,1.475,2.746,11.764,11.764,0,0,1,.476,3.382,9.789,9.789,0,0,1-.555,3.31,8.114,8.114,0,0,1-1.609,2.711,7.694,7.694,0,0,1-2.558,1.829,8.285,8.285,0,0,1-3.4.672Zm-16.185-24.342h4.055v19.941a1.757,1.757,0,0,0,.258,1.1.863.863,0,0,0,.716.328,2.4,2.4,0,0,0,.873-.139c.24-.087.52-.2.83-.318l.687,2.043a6.8,6.8,0,0,1-.853.492,7.841,7.841,0,0,1-.964.406,8.728,8.728,0,0,1-1.049.284,5.586,5.586,0,0,1-1.075.108,6.072,6.072,0,0,1-1.3-.139,2.59,2.59,0,0,1-1.108-.53,2.686,2.686,0,0,1-.785-1.072,4.555,4.555,0,0,1-.29-1.772Zm-2.655,22.323c-.567.3-1.147.567-1.745.82a14.13,14.13,0,0,1-1.978.655,18.147,18.147,0,0,1-2.4.428,26.555,26.555,0,0,1-3.018.154,10.717,10.717,0,0,1-3.343-.492,9.219,9.219,0,0,1-4.694-3.4,11.507,11.507,0,0,1-1.412-2.564,14.979,14.979,0,0,1-.838-2.908,17.488,17.488,0,0,1-.272-3.087,15.771,15.771,0,0,1,.335-3.223,14.04,14.04,0,0,1,.964-2.97,11.9,11.9,0,0,1,1.6-2.561,10.137,10.137,0,0,1,4.969-3.319,11.062,11.062,0,0,1,3.325-.477c.592,0,1.135.018,1.627.049a12.182,12.182,0,0,1,1.368.164,7.532,7.532,0,0,1,1.21.312,8.607,8.607,0,0,1,1.157.492,10.238,10.238,0,0,1,1.207.718q.624.417,1.377.984l-2.266,3.051a15.639,15.639,0,0,0-1.509-1.208,7.122,7.122,0,0,0-1.377-.764,6.3,6.3,0,0,0-1.4-.4,10.39,10.39,0,0,0-1.616-.111,5.529,5.529,0,0,0-2.751.677,6.089,6.089,0,0,0-2.02,1.867,8.713,8.713,0,0,0-1.239,2.779,13.272,13.272,0,0,0-.422,3.43,17.612,17.612,0,0,0,.359,3.667,9.911,9.911,0,0,0,1.16,3.087,6.329,6.329,0,0,0,2.054,2.131,5.577,5.577,0,0,0,3.018.792,8.311,8.311,0,0,0,1.04-.046c.369-.046.738-.074,1.115-.13s.744-.123,1.1-.2.691-.154,1.006-.234v-8.1h4.3Z" transform="translate(-204.166 -322.367)" fill="#fff" fill-rule="evenodd"/>
        <path id="Path_211" data-name="Path 211" d="M566.619,338.009h0l5.511-6.088h5.077l-7.67,7.352,8.169,9.123h-4.863l-6.216-7.125V348.4h-4.062V324.48h4.062Zm-22.091-3.263h0c0-.328,0-.745-.028-1.263a9.456,9.456,0,0,0-.168-1.561h3.826a2.552,2.552,0,0,1,.092.3c.029.125.061.265.1.41s.069.3.1.459.047.3.069.436a6.64,6.64,0,0,1,.907-.672,7.81,7.81,0,0,1,2.527-1.029,7.1,7.1,0,0,1,1.537-.164,7.386,7.386,0,0,1,2.439.4,5.742,5.742,0,0,1,1.967,1.147,5.39,5.39,0,0,1,1.323,1.835,5.992,5.992,0,0,1,.484,2.457V348.4h-4.07V338.249a6.044,6.044,0,0,0-.2-1.678,2.744,2.744,0,0,0-.6-1.109,2.266,2.266,0,0,0-.974-.61,4.272,4.272,0,0,0-1.329-.193,6.48,6.48,0,0,0-.939.074,7.138,7.138,0,0,0-1.021.2,10.3,10.3,0,0,0-1.027.328,6.654,6.654,0,0,0-.946.41v12.74h-4.059Zm-8.36,5.051h0a14.143,14.143,0,0,0-2.974.379,5.408,5.408,0,0,0-1.844.8,2.657,2.657,0,0,0-.949,1.158,3.925,3.925,0,0,0-.261,1.456,3.333,3.333,0,0,0,.154,1.117,1.743,1.743,0,0,0,.444.717,1.643,1.643,0,0,0,.716.385,3.216,3.216,0,0,0,.889.115c.293,0,.592-.018.9-.043a5.99,5.99,0,0,0,.949-.179,6.175,6.175,0,0,0,.977-.35,6.382,6.382,0,0,0,1.006-.578Zm-9.875-5.634h0a9.564,9.564,0,0,1,3.157-1.84,11.176,11.176,0,0,1,3.841-.665,10.989,10.989,0,0,1,2.609.308,7.2,7.2,0,0,1,2.218.924,4.8,4.8,0,0,1,1.544,1.61,4.537,4.537,0,0,1,.577,2.328v7.352a5.2,5.2,0,0,0,.064.9,1.323,1.323,0,0,0,.208.561.824.824,0,0,0,.383.295,1.754,1.754,0,0,0,.58.08,4.19,4.19,0,0,0,.469-.046q.359-.049.656-.1l.437,1.751c-.25.151-.5.29-.766.428a5.559,5.559,0,0,1-.838.35,6.628,6.628,0,0,1-.964.241,7.235,7.235,0,0,1-1.153.094,3.481,3.481,0,0,1-1.956-.533,2.331,2.331,0,0,1-1.006-1.5,7.306,7.306,0,0,1-1.358.983,7.665,7.665,0,0,1-1.412.627,8.025,8.025,0,0,1-1.433.328,11.8,11.8,0,0,1-1.38.094,6.915,6.915,0,0,1-2.045-.295,4.174,4.174,0,0,1-1.547-.865,3.78,3.78,0,0,1-.986-1.4,5.274,5.274,0,0,1-.357-1.977,5.707,5.707,0,0,1,.4-2.217,4.939,4.939,0,0,1,1.1-1.638,5.992,5.992,0,0,1,1.676-1.134,10.028,10.028,0,0,1,2.117-.7,17.581,17.581,0,0,1,2.425-.367q1.279-.1,2.605-.1v-.595a3.753,3.753,0,0,0-.23-1.4,2.565,2.565,0,0,0-.647-.949,2.786,2.786,0,0,0-.992-.539,4.423,4.423,0,0,0-1.279-.175,5.734,5.734,0,0,0-1.125.1,4.39,4.39,0,0,0-1.075.351,6.79,6.79,0,0,0-1.115.672,13.953,13.953,0,0,0-1.286,1.078Zm-14.51-6.592h0v7.094h2.278a9.229,9.229,0,0,0,2.1-.213,4.72,4.72,0,0,0,1.613-.655,3.115,3.115,0,0,0,1.021-1.13,3.432,3.432,0,0,0,.359-1.607,4.142,4.142,0,0,0-.265-1.543,2.371,2.371,0,0,0-.9-1.081,4.59,4.59,0,0,0-1.663-.64,13.093,13.093,0,0,0-2.565-.213Zm0,10.177h0v7.575h3.293a6.974,6.974,0,0,0,2.228-.318,4.768,4.768,0,0,0,1.563-.85,3.35,3.35,0,0,0,.91-1.176,3.13,3.13,0,0,0,.3-1.31,3.925,3.925,0,0,0-.3-1.512,3.229,3.229,0,0,0-.92-1.243,4.694,4.694,0,0,0-1.6-.842,7.809,7.809,0,0,0-2.347-.312Zm3.522-13.268a12.781,12.781,0,0,1,3.339.405,7.714,7.714,0,0,1,2.515,1.166,5.353,5.353,0,0,1,1.6,1.876,5.623,5.623,0,0,1,.558,2.549,4.339,4.339,0,0,1-.359,1.751,5.827,5.827,0,0,1-.989,1.568,6.528,6.528,0,0,1-1.468,1.232,6.453,6.453,0,0,1-1.791.773,8.519,8.519,0,0,1,1.963.609,6.648,6.648,0,0,1,1.844,1.207,6.069,6.069,0,0,1,1.377,1.851,5.625,5.625,0,0,1,.538,2.538,5.517,5.517,0,0,1-.545,2.374,5.982,5.982,0,0,1-1.627,2.041,8.069,8.069,0,0,1-2.669,1.429,11.4,11.4,0,0,1-3.688.539H507.48V324.471Z" transform="translate(-402.766 -323.736)" fill="#fff" fill-rule="evenodd"/>
      </g>
    </g>
  </g>
  <g id="Group_4644" data-name="Group 4644" transform="translate(0)">
    <path id="Path_60324" data-name="Path 60324" d="M36.541,281.66a20,20,0,1,1-14.162,5.847,20,20,0,0,1,14.162-5.847" transform="translate(-16.51 -281.66)" fill="#f03" fill-rule="evenodd"/>
    <path id="Path_60325" data-name="Path 60325" d="M58.343,336.6h0v-3.767l4.779.031c2.3.016,3.422,1.855,3.422,3.777,0,5.316-8.188,6.454-8.2-.041m0-9.991h0c8.816-4.626,9.594,5.536,4.27,5.051H58.328Zm7.682,5.516c6.32-2.42,1.038-11.843-9.306-6.014a8.064,8.064,0,0,0-3.676-1.689c-2.555-.519-5.983-.067-7.905,1.728l.929.911a6.933,6.933,0,0,1,7.342-1.082,2.977,2.977,0,0,1,1.619,2l.047,8.657h0c-.379,6.014-8.126,5.549-8.123,0v-3.8h6.092v-1.146h-9.3v3.739c.023,7.106,8.668,8.3,12.949,4.844a9.536,9.536,0,0,0,6.071,1.868c7.674-.052,9.254-8.328,3.24-10.012Z" transform="translate(-36.556 -313.105)" fill="#fff" fill-rule="evenodd"/>
  </g>
</svg>
