<svg xmlns="http://www.w3.org/2000/svg" width="39.993" height="40" viewBox="0 0 39.993 40">
  <g id="App_icon" data-name="App icon" transform="translate(0)">
    <path id="Path_60324" data-name="Path 60324" d="M36.538,281.66a20,20,0,1,1-20.028,20,20,20,0,0,1,20.028-20" transform="translate(-16.51 -281.66)" fill="#f03" fill-rule="evenodd"/>
    <path id="Path_60325" data-name="Path 60325" d="M58.13,336.2h0v-3.645l4.709.03a3.371,3.371,0,0,1,3.372,3.655c0,5.144-8.068,6.246-8.076-.04m0-9.668h0c8.687-4.476,9.454,5.358,4.208,4.888H58.114Zm7.569,5.337c6.227-2.342,1.023-11.461-9.17-5.819a8.013,8.013,0,0,0-3.622-1.634c-2.518-.5-5.9-.065-7.789,1.672l.915.881a6.929,6.929,0,0,1,7.235-1.047,2.892,2.892,0,0,1,1.6,1.931l.046,8.378h0c-.373,5.819-8.007,5.37-8,0v-3.675h6v-1.11H43.75v3.618c.023,6.876,8.541,8.034,12.759,4.687a9.514,9.514,0,0,0,5.982,1.808c7.562-.05,9.119-8.059,3.193-9.688Z" transform="translate(-36.418 -312.892)" fill="#fff" fill-rule="evenodd"/>
  </g>
</svg>
