<svg id="mail" xmlns="http://www.w3.org/2000/svg" width="35" height="35" viewBox="0 0 35 35">
  <g id="Ellipse_225" data-name="Ellipse 225" fill="none" stroke="#5b5b5b" stroke-width="1">
    <circle cx="17.5" cy="17.5" r="17.5" stroke="none"/>
    <circle cx="17.5" cy="17.5" r="17" fill="none"/>
  </g>
  <path id="Path_187744" data-name="Path 187744" d="M18.4-40H5.6a1.593,1.593,0,0,0-1.128.469A1.593,1.593,0,0,0,4.008-38.4L4-28.8a1.6,1.6,0,0,0,1.6,1.6H18.4A1.6,1.6,0,0,0,20-28.8v-9.6A1.6,1.6,0,0,0,18.4-40Zm0,3.2-6.4,4-6.4-4v-1.6l6.4,4,6.4-4Z" transform="translate(6 51)" fill="#5b5b5b"/>
</svg>
