<svg xmlns="http://www.w3.org/2000/svg" width="36" height="36" viewBox="0 0 36 36">
  <g id="Group_5704" data-name="Group 5704" transform="translate(0.033 -0.017)">
    <circle id="Ellipse_204" data-name="Ellipse 204" cx="18" cy="18" r="18" transform="translate(-0.033 0.017)" fill="#fbedf6"/>
    <path id="Path_639261" data-name="Path 639261" d="M156.186,38.539a2.106,2.106,0,0,0-.7,4.108v1.915a2.437,2.437,0,0,1-4.874,0V41.777a4.351,4.351,0,0,0,3.673-4.3V35.859a1.567,1.567,0,0,0-1.566-1.567h-.07v-.557a.7.7,0,1,0-1.392,0v2.506a.7.7,0,1,0,1.392,0v-.557h.07a.174.174,0,0,1,.174.174v1.619a2.959,2.959,0,0,1-5.9,0V35.859a.174.174,0,0,1,.174-.174h.07v.557h0a.7.7,0,1,0,1.392,0V33.735a.7.7,0,0,0-1.392,0v.557h-.07a1.567,1.567,0,0,0-1.566,1.567v1.619a4.351,4.351,0,0,0,3.62,4.282v2.8a3.829,3.829,0,0,0,7.659,0V42.647a2.106,2.106,0,0,0-.7-4.108Zm0,2.837a.714.714,0,1,1,.5-.209A.714.714,0,0,1,156.186,41.377Z" transform="translate(-134.783 -22.698)" fill="#d34da7"/>
  </g>
</svg>
