<svg id="Logo-version-1-on-white_bg" data-name="Logo-version-1-on-white bg" xmlns="http://www.w3.org/2000/svg" width="159.425" height="32" viewBox="0 0 159.425 32">
  <g id="Group_3" data-name="Group 3" transform="translate(42.667 8)">
    <g id="Logo" transform="translate(0 0)">
      <g id="Group_1337" data-name="Group 1337">
        <path id="Path_212" data-name="Path 212" d="M260.147,335h0a4.293,4.293,0,0,0,3.16,1.6,3.21,3.21,0,0,0,.688-.071,1.713,1.713,0,0,0,.551-.224,1.2,1.2,0,0,0,.365-.4,1.235,1.235,0,0,0,.133-.588.861.861,0,0,0-.107-.448,1.218,1.218,0,0,0-.289-.343,2.106,2.106,0,0,0-.4-.256,2.877,2.877,0,0,0-.44-.191c-.273-.1-.546-.21-.817-.3s-.536-.186-.812-.3c-.153-.051-.341-.119-.555-.2a6.238,6.238,0,0,1-.688-.3,5.463,5.463,0,0,1-.688-.419,3.21,3.21,0,0,1-.615-.588,2.928,2.928,0,0,1-.445-.779,2.7,2.7,0,0,1-.169-1,2.178,2.178,0,0,1,.349-1.231,2.948,2.948,0,0,1,.931-.9,4.537,4.537,0,0,1,1.314-.536,6.249,6.249,0,0,1,1.513-.18,8.281,8.281,0,0,1,2.253.282,5.2,5.2,0,0,1,1.853.945l-1.18,1.777c-.206-.2-.406-.379-.605-.54a3.812,3.812,0,0,0-.623-.41,3.221,3.221,0,0,0-.72-.26,4.231,4.231,0,0,0-.889-.085,2.426,2.426,0,0,0-.72.1,1.53,1.53,0,0,0-.5.262,1.036,1.036,0,0,0-.282.381,1.124,1.124,0,0,0-.091.448.79.79,0,0,0,.129.448,1.313,1.313,0,0,0,.337.333,2.253,2.253,0,0,0,.458.244c.174.069.349.132.528.189.28.1.564.2.846.292s.564.191.843.288c.139.053.31.112.512.186a4.826,4.826,0,0,1,.617.274,4.034,4.034,0,0,1,.635.408,2.829,2.829,0,0,1,.566.572,2.89,2.89,0,0,1,.4.785,3.018,3.018,0,0,1,.158,1.031,2.293,2.293,0,0,1-.371,1.294,3.123,3.123,0,0,1-.972.937,4.8,4.8,0,0,1-1.376.574,6.4,6.4,0,0,1-1.579.193,11.841,11.841,0,0,1-1.357-.077,6.446,6.446,0,0,1-1.213-.264,5.032,5.032,0,0,1-1.1-.5,4.879,4.879,0,0,1-.98-.8Zm-9.954-7.475h0v7.231a1.874,1.874,0,0,0,.127.724,1.342,1.342,0,0,0,.335.493,1.235,1.235,0,0,0,.5.278,2.01,2.01,0,0,0,.613.085,6.792,6.792,0,0,0,1.529-.18,4.85,4.85,0,0,0,1.428-.56V327.52h2.61v8.716a6.027,6.027,0,0,0,.061.729c.036.315.1.686.177,1.11H255.1c-.014-.04-.037-.112-.064-.224s-.061-.224-.094-.347-.057-.24-.085-.349a2.134,2.134,0,0,1-.048-.247,4.987,4.987,0,0,1-.764.542,5.779,5.779,0,0,1-.889.43,5.642,5.642,0,0,1-.935.278,4.3,4.3,0,0,1-.9.1,4.822,4.822,0,0,1-1.791-.282,2.81,2.81,0,0,1-1.76-1.958,5.627,5.627,0,0,1-.177-1.448v-7.047Zm-11.85,8.883h0a6.3,6.3,0,0,0,.976.24,7.1,7.1,0,0,0,1.146.094,2.352,2.352,0,0,0,1.123-.276,2.562,2.562,0,0,0,.875-.8,3.993,3.993,0,0,0,.578-1.272,6.471,6.471,0,0,0,.2-1.7,6.141,6.141,0,0,0-.151-1.4,3.018,3.018,0,0,0-.47-1.081,2.161,2.161,0,0,0-.812-.692,2.684,2.684,0,0,0-1.188-.244,5.259,5.259,0,0,0-.644.043c-.215.031-.422.071-.623.12a4.7,4.7,0,0,0-.564.17,2.679,2.679,0,0,0-.458.224Zm-2.6-13.639h2.6v5.551a4.626,4.626,0,0,1,1.348-.688,5.35,5.35,0,0,1,1.731-.269,4.612,4.612,0,0,1,2.1.448,4.007,4.007,0,0,1,1.412,1.186,4.9,4.9,0,0,1,.8,1.711,7.955,7.955,0,0,1,.254,2.017,6.06,6.06,0,0,1-.458,2.467,5.122,5.122,0,0,1-1.212,1.733,4.935,4.935,0,0,1-1.695,1.022,5.848,5.848,0,0,1-1.914.332q-.751,0-1.376-.016c-.419-.012-.825-.025-1.212-.043s-.778-.047-1.16-.085-.784-.083-1.2-.138Zm-7,13.821h0a1.864,1.864,0,0,0,1.147-.355,2.68,2.68,0,0,0,.786-.929,4.638,4.638,0,0,0,.458-1.3,7,7,0,0,0,.151-1.469,6.383,6.383,0,0,0-.133-1.316,3.2,3.2,0,0,0-.447-1.083,2.243,2.243,0,0,0-.8-.734,2.4,2.4,0,0,0-1.192-.276,2.184,2.184,0,0,0-1.112.282,2.422,2.422,0,0,0-.8.779,3.785,3.785,0,0,0-.484,1.173,6.233,6.233,0,0,0-.02,2.78,4.2,4.2,0,0,0,.458,1.213,2.743,2.743,0,0,0,.809.9,2.025,2.025,0,0,0,1.18.336Zm.087,1.757h0a6.339,6.339,0,0,1-2.332-.4,4.619,4.619,0,0,1-1.7-1.138,4.863,4.863,0,0,1-1.045-1.784,7.09,7.09,0,0,1-.36-2.319,6.4,6.4,0,0,1,.328-2.053,4.677,4.677,0,0,1,2.686-2.863,6.111,6.111,0,0,1,2.385-.428,5.92,5.92,0,0,1,2.361.428,4.457,4.457,0,0,1,1.63,1.179,4.778,4.778,0,0,1,.944,1.757,7.529,7.529,0,0,1,.3,2.165,6.263,6.263,0,0,1-.355,2.118,5.192,5.192,0,0,1-1.03,1.735,4.925,4.925,0,0,1-1.637,1.171,5.3,5.3,0,0,1-2.174.43Zm-10.358-15.579h2.6v12.762a1.124,1.124,0,0,0,.165.7.552.552,0,0,0,.458.21,1.534,1.534,0,0,0,.559-.089c.153-.056.333-.128.531-.2l.44,1.307a4.34,4.34,0,0,1-.546.315,5.025,5.025,0,0,1-.617.26,5.585,5.585,0,0,1-.672.181,3.571,3.571,0,0,1-.688.069,3.882,3.882,0,0,1-.829-.089,1.657,1.657,0,0,1-.709-.339,1.719,1.719,0,0,1-.5-.686,2.916,2.916,0,0,1-.186-1.134Zm-1.7,14.287c-.363.191-.734.363-1.117.525a9.049,9.049,0,0,1-1.266.419,11.622,11.622,0,0,1-1.539.274,16.981,16.981,0,0,1-1.931.1,6.857,6.857,0,0,1-2.139-.315,5.9,5.9,0,0,1-3-2.175,7.367,7.367,0,0,1-.9-1.641,9.583,9.583,0,0,1-.536-1.861,11.185,11.185,0,0,1-.174-1.976,10.094,10.094,0,0,1,.215-2.063,8.984,8.984,0,0,1,.617-1.9,7.619,7.619,0,0,1,1.021-1.639,6.487,6.487,0,0,1,3.18-2.124,7.079,7.079,0,0,1,2.128-.305c.379,0,.726.012,1.042.032a7.807,7.807,0,0,1,.875.1,4.817,4.817,0,0,1,.775.2,5.507,5.507,0,0,1,.74.315,6.553,6.553,0,0,1,.773.459q.4.267.881.63l-1.45,1.952a10,10,0,0,0-.966-.773,4.554,4.554,0,0,0-.881-.489,4.03,4.03,0,0,0-.9-.256,6.653,6.653,0,0,0-1.034-.071,3.539,3.539,0,0,0-1.761.433,3.9,3.9,0,0,0-1.293,1.195,5.577,5.577,0,0,0-.793,1.778,8.494,8.494,0,0,0-.27,2.2,11.272,11.272,0,0,0,.229,2.347,6.345,6.345,0,0,0,.743,1.976,4.05,4.05,0,0,0,1.314,1.364,3.569,3.569,0,0,0,1.931.507,5.311,5.311,0,0,0,.665-.029c.236-.029.472-.047.714-.083s.476-.079.706-.128.442-.1.644-.15v-5.181h2.749Z" transform="translate(-204.166 -322.367)" fill="#036" fill-rule="evenodd"/>
        <path id="Path_211" data-name="Path 211" d="M546.488,333.4h0l3.635-4.015h3.349l-5.059,4.85,5.388,6.018h-3.208l-4.1-4.7v4.7h-2.679V324.477h2.679Zm-14.571-2.153h0c0-.216,0-.492-.019-.833a6.237,6.237,0,0,0-.111-1.03h2.523a1.671,1.671,0,0,1,.061.2c.019.082.04.175.066.27s.045.2.063.3.031.2.045.288a4.375,4.375,0,0,1,.6-.443,5.151,5.151,0,0,1,1.667-.679,4.687,4.687,0,0,1,1.014-.108,4.873,4.873,0,0,1,1.609.262,3.788,3.788,0,0,1,1.3.756,3.556,3.556,0,0,1,.872,1.21,3.952,3.952,0,0,1,.319,1.621v7.2h-2.685v-6.7a3.984,3.984,0,0,0-.135-1.106,1.809,1.809,0,0,0-.4-.732,1.5,1.5,0,0,0-.643-.4,2.82,2.82,0,0,0-.877-.128,4.281,4.281,0,0,0-.619.049,4.712,4.712,0,0,0-.673.134,6.791,6.791,0,0,0-.678.216,4.387,4.387,0,0,0-.624.271v8.4h-2.677ZM526.4,334.58h0a9.322,9.322,0,0,0-1.962.25,3.566,3.566,0,0,0-1.216.529,1.752,1.752,0,0,0-.626.764,2.59,2.59,0,0,0-.172.961,2.2,2.2,0,0,0,.1.737,1.151,1.151,0,0,0,.293.473,1.083,1.083,0,0,0,.472.254,2.122,2.122,0,0,0,.586.076c.193,0,.39-.012.59-.028a3.952,3.952,0,0,0,.626-.118,4.07,4.07,0,0,0,.645-.231,4.2,4.2,0,0,0,.663-.382Zm-6.513-3.716h0a6.307,6.307,0,0,1,2.082-1.213,7.373,7.373,0,0,1,2.534-.439,7.252,7.252,0,0,1,1.721.2,4.748,4.748,0,0,1,1.463.609,3.163,3.163,0,0,1,1.019,1.062,2.992,2.992,0,0,1,.38,1.536v4.85a3.417,3.417,0,0,0,.042.591.871.871,0,0,0,.137.37.543.543,0,0,0,.252.195,1.159,1.159,0,0,0,.383.053,2.767,2.767,0,0,0,.31-.03q.237-.033.432-.069l.288,1.155c-.165.1-.332.191-.505.282a3.663,3.663,0,0,1-.553.231,4.372,4.372,0,0,1-.636.159,4.783,4.783,0,0,1-.761.062,2.3,2.3,0,0,1-1.29-.351,1.537,1.537,0,0,1-.664-.991,4.818,4.818,0,0,1-.9.648,5.063,5.063,0,0,1-.931.414,5.3,5.3,0,0,1-.945.216,7.8,7.8,0,0,1-.91.062,4.561,4.561,0,0,1-1.349-.195,2.754,2.754,0,0,1-1.021-.571,2.494,2.494,0,0,1-.65-.924,3.479,3.479,0,0,1-.235-1.3,3.768,3.768,0,0,1,.262-1.462,3.258,3.258,0,0,1,.726-1.081,3.95,3.95,0,0,1,1.106-.748,6.611,6.611,0,0,1,1.4-.461,11.589,11.589,0,0,1,1.6-.242q.844-.069,1.719-.069v-.392a2.471,2.471,0,0,0-.152-.924,1.69,1.69,0,0,0-.427-.626,1.837,1.837,0,0,0-.655-.355,2.917,2.917,0,0,0-.844-.116,3.778,3.778,0,0,0-.742.067,2.894,2.894,0,0,0-.709.231,4.482,4.482,0,0,0-.735.443,9.171,9.171,0,0,0-.848.711Zm-9.571-4.348h0v4.679h1.5a6.094,6.094,0,0,0,1.385-.14,3.113,3.113,0,0,0,1.064-.432,2.053,2.053,0,0,0,.674-.746,2.265,2.265,0,0,0,.237-1.06,2.733,2.733,0,0,0-.175-1.018,1.563,1.563,0,0,0-.591-.713,3.027,3.027,0,0,0-1.1-.422,8.637,8.637,0,0,0-1.692-.141Zm0,6.713h0v5h2.172a4.6,4.6,0,0,0,1.469-.21,3.142,3.142,0,0,0,1.031-.561,2.207,2.207,0,0,0,.6-.776,2.063,2.063,0,0,0,.2-.864,2.59,2.59,0,0,0-.2-1,2.13,2.13,0,0,0-.607-.82,3.1,3.1,0,0,0-1.056-.555,5.152,5.152,0,0,0-1.548-.206Zm2.323-8.752a8.431,8.431,0,0,1,2.2.267,5.09,5.09,0,0,1,1.659.769,3.531,3.531,0,0,1,1.058,1.237,3.707,3.707,0,0,1,.368,1.682,2.864,2.864,0,0,1-.237,1.155,3.845,3.845,0,0,1-.653,1.034,4.306,4.306,0,0,1-.968.813,4.257,4.257,0,0,1-1.181.51,5.617,5.617,0,0,1,1.295.4,4.383,4.383,0,0,1,1.216.8,4,4,0,0,1,.908,1.221,3.709,3.709,0,0,1,.355,1.674,3.637,3.637,0,0,1-.359,1.566,3.943,3.943,0,0,1-1.073,1.346,5.323,5.323,0,0,1-1.76.942,7.519,7.519,0,0,1-2.433.355h-5.56V324.471Z" transform="translate(-437.042 -323.883)" fill="#036" fill-rule="evenodd"/>
      </g>
    </g>
  </g>
  <g id="Group_4644" data-name="Group 4644">
    <path id="Path_60324" data-name="Path 60324" d="M32.535,281.66a16,16,0,1,1-11.33,4.677,16,16,0,0,1,11.33-4.677" transform="translate(-16.51 -281.66)" fill="#f03" fill-rule="evenodd"/>
    <path id="Path_60325" data-name="Path 60325" d="M55.425,334.126h0v-3.014l3.823.025a2.768,2.768,0,0,1,2.738,3.022c0,4.253-6.55,5.164-6.556-.033m0-7.993h0c7.053-3.7,7.675,4.429,3.416,4.041H55.412Zm6.146,4.413c5.056-1.936.83-9.475-7.445-4.811a6.45,6.45,0,0,0-2.941-1.351c-2.044-.415-4.786-.054-6.324,1.382l.743.729a5.546,5.546,0,0,1,5.874-.865,2.382,2.382,0,0,1,1.3,1.6l.037,6.926h0c-.3,4.811-6.5,4.439-6.5,0v-3.038h4.873V330.2H43.75v2.991c.019,5.685,6.934,6.641,10.359,3.875a7.629,7.629,0,0,0,4.857,1.494c6.139-.042,7.4-6.662,2.592-8.009Z" transform="translate(-37.995 -315.328)" fill="#fff" fill-rule="evenodd"/>
  </g>
</svg>
