<svg xmlns="http://www.w3.org/2000/svg" width="45.7" height="45.7" viewBox="0 0 45.7 45.7">
  <g id="noun-image-5032091" transform="translate(0 0)">
    <path id="Path_639182" data-name="Path 639182" d="M174.346,62.891h-37.2a4.257,4.257,0,0,0-4.252,4.252v37.2a4.257,4.257,0,0,0,4.252,4.252h37.2a4.257,4.257,0,0,0,4.252-4.252v-37.2A4.257,4.257,0,0,0,174.346,62.891Zm1.374,41.448a1.376,1.376,0,0,1-1.374,1.374h-37.2a1.376,1.376,0,0,1-1.374-1.374v-2.921l10.277-11.2,6.041,6.2a1.439,1.439,0,0,0,2.092-.033l11-12.023,10.531,11.5Zm-9.471-23.081a1.439,1.439,0,0,0-2.123,0L153.091,93.318l-6.039-6.2a1.439,1.439,0,0,0-2.091.032l-9.186,10.01V67.143a1.376,1.376,0,0,1,1.374-1.374h37.2a1.376,1.376,0,0,1,1.374,1.374V91.6Z" transform="translate(-132.898 -62.891)" fill="#036"/>
    <path id="Path_639183" data-name="Path 639183" d="M263.421,141.09a4.748,4.748,0,1,0,4.748,4.748A4.754,4.754,0,0,0,263.421,141.09Zm0,6.619a1.871,1.871,0,1,1,1.871-1.871A1.873,1.873,0,0,1,263.421,147.709Z" transform="translate(-245.436 -132.86)" fill="#036"/>
  </g>
</svg>
