<svg xmlns="http://www.w3.org/2000/svg" width="36" height="36" viewBox="0 0 36 36">
  <g id="Group_5704" data-name="Group 5704" transform="translate(0.033 -0.017)">
    <circle id="Ellipse_204" data-name="Ellipse 204" cx="18" cy="18" r="18" transform="translate(-0.033 0.017)" fill="#e6f5ef"/>
    <g id="noun-mail-1092222" transform="translate(-276.948 -155.215)">
      <path id="Path_639255" data-name="Path 639255" d="M302.724,197.26a2.776,2.776,0,0,1,.192.859v7.25a2.086,2.086,0,0,1-2.012,2H288.927a2.086,2.086,0,0,1-2.012-2v-7.25a2.776,2.776,0,0,1,.192-.859l6.036,4.96a2.752,2.752,0,0,0,3.449.1l6.131-5.056Z" transform="translate(0 -28.486)" fill="#15a372" fill-rule="evenodd"/>
      <path id="Path_639256" data-name="Path 639256" d="M310.337,167.58h11.921a2.272,2.272,0,0,1,1.144.4l-6.008,5.272a1.8,1.8,0,0,1-2.193,0l-6.008-5.272a1.991,1.991,0,0,1,1.144-.4Z" transform="translate(-21.382 0)" fill="#15a372" fill-rule="evenodd"/>
    </g>
  </g>
</svg>
