<svg xmlns="http://www.w3.org/2000/svg" width="18.854" height="24" viewBox="0 0 18.854 24">
  <path id="Path_75836" data-name="Path 75836" d="M18.9,4.525a1.062,1.062,0,0,0-1.114,1v22a1.062,1.062,0,0,0,1.114,1H35.53a1.062,1.062,0,0,0,1.113-1v-16H29.434a.529.529,0,0,1-.554-.5v-6.5H18.9Zm11.086.35v5.65h6.03Zm-3,6.112a1.168,1.168,0,0,1,.835.321c.637.624.382,1.952-.317,3.984a17.372,17.372,0,0,0,2.741,4.147,10.182,10.182,0,0,1,1.32-.126,4.286,4.286,0,0,1,2.826.7.991.991,0,0,1,.356,1.172c-.236.535-.963.842-1.992.842a4.57,4.57,0,0,1-2.909-1.5,16.748,16.748,0,0,0-2.959.95c-.731.3-1.376.6-1.945.879a5.786,5.786,0,0,1-3.03,3.614,2.692,2.692,0,0,1-1.091.277,1.165,1.165,0,0,1-.618-.156.8.8,0,0,1-.391-.783c.072-.809,1.257-2.123,4.222-3.641.172-.459.347-.967.54-1.527.138-.4.284-.822.443-1.269.2-.557.422-1.149.637-1.721.229-.607.462-1.224.67-1.815a9.411,9.411,0,0,1-.739-2.355c-.2-1.462.5-1.844.934-1.942a2.008,2.008,0,0,1,.464-.053Zm-.008,1a.838.838,0,0,0-.186.024c-.066.015-.183.249-.1.85a5.529,5.529,0,0,0,.175.791c.364-1.376.162-1.643.143-1.665A.213.213,0,0,1,26.982,11.986ZM27,16.7q-.14.377-.291.778c-.214.568-.436,1.154-.632,1.7h0c-.158.444-.3.864-.44,1.261q-.1.285-.193.557.468-.21.981-.424a18.913,18.913,0,0,1,2.623-.884A17.563,17.563,0,0,1,27,16.7Zm4.654,3.616c-.142,0-.294.008-.455.02a2.711,2.711,0,0,0,1.559.693,1.518,1.518,0,0,0,.952-.2.768.768,0,0,0-.35-.251A4.111,4.111,0,0,0,31.657,20.311Zm-8.3,2.9a6.477,6.477,0,0,0-2.385,2.014,2.137,2.137,0,0,0,.446-.153A3.971,3.971,0,0,0,23.362,23.216Z" transform="translate(-17.789 -4.525)" fill="#eb2232"/>
</svg>
