<svg width="26" height="33" viewBox="0 0 41 47" fill="none" xmlns="http://www.w3.org/2000/svg">
<path d="M36.9817 5.00899e-05H15.7051C15.4697 5.00899e-05 15.2566 0.0941493 15.0998 0.248794L3.77791 11.4168C3.62114 11.5715 3.52574 11.7817 3.52574 12.0138V21.7057H2.94829C1.32306 21.7057 0 23.0104 0 24.6139V32.3321C0 33.9352 1.32266 35.2403 2.94829 35.2403H3.52574V43.0359C3.52574 45.2253 5.33042 47 7.54447 47L36.9813 46.9996C39.2008 46.9996 41 45.2195 41 43.0355V3.96411C41 1.78016 39.1953 0 36.9813 0L36.9817 5.00899e-05ZM14.8533 2.88052V8.89016C14.8533 10.1451 13.8165 11.1678 12.5443 11.1678L6.44594 11.1682L14.8533 2.88052ZM2.94888 33.5482C2.26508 33.5482 1.71029 33.001 1.71029 32.3265L1.7099 24.6138C1.7099 23.9393 2.26469 23.392 2.94849 23.392H21.798C22.4818 23.392 23.0366 23.9393 23.0366 24.6138V32.3319C23.0366 33.0064 22.4818 33.5537 21.798 33.5537H2.94949L2.94888 33.5482ZM39.2907 43.0299C39.2907 44.2849 38.2539 45.3076 36.9817 45.3076L7.55091 45.308C6.2787 45.308 5.24189 44.2852 5.24189 43.0303V35.2347H21.7994C23.4246 35.2347 24.7477 33.93 24.7477 32.3265L24.7469 24.6138C24.7469 23.0107 23.4243 21.7056 21.7986 21.7056H5.24211V12.8541H12.5454C14.765 12.8541 16.5641 11.0739 16.5641 8.88996V1.68591H36.983C38.2553 1.68591 39.2921 2.70863 39.2921 3.96355L39.2907 43.0299Z" fill="#FF0032"/>
<path d="M7.80312 25.5537C7.57323 25.4927 7.08569 25.4654 6.34014 25.4654H4.36731V31.4808H5.60039V29.2139H6.40187C6.95666 29.2139 7.38281 29.1862 7.67999 29.1256C7.89855 29.0813 8.11162 28.9818 8.31883 28.8383C8.52605 28.6945 8.70003 28.4955 8.83452 28.2467C8.96901 27.9926 9.03625 27.6829 9.03625 27.3181C9.03625 26.8372 8.91857 26.45 8.68321 26.1461C8.44746 25.841 8.15619 25.642 7.80314 25.5537L7.80312 25.5537ZM7.62914 27.7981C7.53374 27.9308 7.41059 28.0303 7.24247 28.0913C7.07983 28.1522 6.75493 28.1854 6.2674 28.1854H5.59493L5.59453 26.4823H6.18881C6.63177 26.4823 6.92851 26.4935 7.07435 26.5209C7.27609 26.554 7.43873 26.6481 7.56776 26.7862C7.69678 26.93 7.76402 27.1067 7.76402 27.328C7.76949 27.5054 7.71906 27.6655 7.62913 27.7982L7.62914 27.7981Z" fill="#FF0032"/>
<path d="M14.3709 26.1342C14.1132 25.8689 13.8102 25.6865 13.4517 25.5812C13.1882 25.5037 12.8015 25.4651 12.2913 25.4651H10.0436V31.4806H12.3586C12.8125 31.4806 13.1769 31.4362 13.4458 31.3533C13.8102 31.2372 14.096 31.0768 14.3091 30.8724C14.5894 30.6016 14.808 30.2476 14.9593 29.8107C15.0824 29.4512 15.1442 29.0255 15.1442 28.5333C15.1442 27.9695 15.0769 27.494 14.9425 27.1125C14.8193 26.7203 14.6234 26.3995 14.3709 26.1341L14.3709 26.1342ZM13.7543 29.5731C13.6703 29.8438 13.5639 30.0374 13.4294 30.1535C13.3004 30.2696 13.1323 30.3525 12.9306 30.4022C12.7793 30.4408 12.5326 30.4574 12.185 30.4574H11.2658V26.4767H11.8206C12.325 26.4767 12.6612 26.4933 12.8293 26.5318C13.0592 26.5816 13.2496 26.6757 13.4009 26.8138C13.5522 26.9518 13.6644 27.1454 13.7485 27.3942C13.8325 27.6429 13.8716 28.0023 13.8716 28.4666C13.8779 28.9375 13.8384 29.3077 13.7543 29.5731H13.7543Z" fill="#FF0032"/>
<path d="M16.2045 31.4754H17.4376V28.9212H19.9824V27.9038H17.4376V26.4826H20.3859V25.4656H16.2045V31.4754Z" fill="#FF0032"/>
</svg>
