<svg xmlns="http://www.w3.org/2000/svg" width="21.465" height="21.686" viewBox="0 0 21.465 21.686">
  <g id="people" transform="translate(-1.252 -1.25)">
    <path id="Path_639105" data-name="Path 639105" d="M18,7.16a.605.605,0,0,0-.19,0,2.585,2.585,0,1,1,.19,0Z" fill="none" stroke="#5b5b5b" stroke-linecap="round" stroke-linejoin="round" stroke-width="1.5"/>
    <path id="Path_639106" data-name="Path 639106" d="M16.97,14.44a5.635,5.635,0,0,0,3.94-.72,1.911,1.911,0,0,0,0-3.42,5.67,5.67,0,0,0-3.97-.71" fill="none" stroke="#5b5b5b" stroke-linecap="round" stroke-linejoin="round" stroke-width="1.5"/>
    <path id="Path_639107" data-name="Path 639107" d="M5.97,7.16a.605.605,0,0,1,.19,0,2.585,2.585,0,1,0-.19,0Z" fill="none" stroke="#5b5b5b" stroke-linecap="round" stroke-linejoin="round" stroke-width="1.5"/>
    <path id="Path_639108" data-name="Path 639108" d="M7,14.44a5.635,5.635,0,0,1-3.94-.72,1.911,1.911,0,0,1,0-3.42,5.67,5.67,0,0,1,3.97-.71" fill="none" stroke="#5b5b5b" stroke-linecap="round" stroke-linejoin="round" stroke-width="1.5"/>
    <path id="Path_639109" data-name="Path 639109" d="M12,14.63a.605.605,0,0,0-.19,0,2.585,2.585,0,1,1,.19,0Z" fill="none" stroke="#5b5b5b" stroke-linecap="round" stroke-linejoin="round" stroke-width="1.5"/>
    <path id="Path_639110" data-name="Path 639110" d="M9.09,17.78a1.911,1.911,0,0,0,0,3.42,5.677,5.677,0,0,0,5.82,0,1.911,1.911,0,0,0,0-3.42A5.723,5.723,0,0,0,9.09,17.78Z" fill="none" stroke="#5b5b5b" stroke-linecap="round" stroke-linejoin="round" stroke-width="1.5"/>
  </g>
</svg>
