<svg xmlns="http://www.w3.org/2000/svg" width="26" height="26" viewBox="0 0 26 26">
  <g id="Group_2713915" data-name="Group 2713915" transform="translate(-795 -385)">
    <g id="Ellipse_276" data-name="Ellipse 276" transform="translate(795 385)" fill="#fff" stroke="#036" stroke-width="1">
      <circle cx="13" cy="13" r="13" stroke="none"/>
      <circle cx="13" cy="13" r="12.5" fill="none"/>
    </g>
    <path id="Path_639372" data-name="Path 639372" d="M164.976,33.6c-1.169.01-2.575.5-2.835,1.8a8.161,8.161,0,0,0-.11,1.838c-.487.347-.545,2,.133,2.368a5.136,5.136,0,0,0,.709,1.372l-.065,1.213a16.69,16.69,0,0,1-1.583.847,2.469,2.469,0,0,0-1.4,3.362,2.512,2.512,0,0,0,1.8.921l.012,0a21.6,21.6,0,0,0,6.359.076,4.2,4.2,0,0,0,2.146-.7,3.026,3.026,0,0,0,.163-2.135c-.188-.763-.914-1.154-1.628-1.489a12.024,12.024,0,0,1-1.81-.916l-.038-1.075a3.727,3.727,0,0,0,.985-1.419,1.448,1.448,0,0,0,.444-1.146,1.571,1.571,0,0,0-.338-1.167,3.982,3.982,0,0,0-.053-2.055,2.864,2.864,0,0,0-2.887-1.7Z" transform="translate(642.991 357.398)" fill="#036" fill-rule="evenodd"/>
  </g>
</svg>
