<svg xmlns="http://www.w3.org/2000/svg" width="48" height="48" viewBox="0 0 48 48">
  <g id="Group_2713255" data-name="Group 2713255" transform="translate(-1242 -23)">
    <circle id="Ellipse_228" data-name="Ellipse 228" cx="24" cy="24" r="24" transform="translate(1242 23)" fill="#036"/>
    <path id="Path_187755" data-name="Path 187755" d="M205.122,105.575a34,34,0,0,0,2.118,4.661c.525.788,1.271,2.119,4.237,2.119s3.711-1.331,4.237-2.119a33.933,33.933,0,0,0,2.119-4.661.848.848,0,0,0,.847-.847v-1.695a.848.848,0,0,0-.847-.848v-1.271c0-2.965-1.678-5.508-6.356-5.508-4.662,0-6.356,2.542-6.356,5.508v1.271a.878.878,0,0,0-.848.848v1.695a.849.849,0,0,0,.849.847Zm19.469,16.108c-.01-.622-.021-1.261-.032-1.367-.5-4.616-3.866-6.953-8.434-7.795-.757.842-2.04,1.694-4.647,1.694s-3.9-.857-4.655-1.7c-4.586.836-7.967,3.173-8.472,7.8-.017.156-.032,1.475-.046,2.186l.008-.009-.008.646a21.051,21.051,0,0,0,13.149,4.267,21.462,21.462,0,0,0,13.149-4.267v-1.456h-.013Z" transform="translate(1054.693 -64.405)" fill="#fff"/>
  </g>
</svg>
