<svg width="61" height="57" viewBox="0 0 61 57" fill="none" xmlns="http://www.w3.org/2000/svg">
<path d="M30.5006 51.8176C25.3407 51.8319 20.309 50.28 16.1322 47.3862C11.9554 44.4925 8.84999 40.4063 7.26364 35.7165C5.67681 31.0275 5.69135 25.9784 7.30497 21.2975L7.54931 21.5309C8.81373 22.7271 10.6099 23.2585 12.3613 22.9539C14.1122 22.6494 15.5973 21.5473 16.3389 20.0019L21.3034 9.53516C21.9234 8.24738 21.962 6.77318 21.4097 5.45764C20.8574 4.1421 19.7634 3.10115 18.3841 2.57851C17.0043 2.0563 15.4605 2.09837 14.1144 2.69562L3.1816 7.43669C1.56339 8.13759 0.407572 9.55156 0.0883006 11.221C-0.230982 12.8899 0.326742 14.6027 1.58071 15.805L3.12719 17.2819V17.2815C1.50584 20.8194 0.665105 24.6384 0.658362 28.5004C0.663357 36.0573 3.80899 43.3035 9.40437 48.6476C14.9998 53.9917 22.588 56.9952 30.5012 57C31.4704 57 32.366 56.506 32.8506 55.7044C33.3352 54.9029 33.3352 53.9153 32.8506 53.1138C32.366 52.3122 31.4704 51.8182 30.5012 51.8182L30.5006 51.8176Z" fill="#EB1D31"/>
<path d="M59.4199 41.195L57.8734 39.7181V39.7185C59.4948 36.1806 60.3355 32.3616 60.3422 28.4996C60.3372 20.9427 57.1916 13.6965 51.5962 8.35236C46.0008 3.00826 38.4126 0.00477449 30.4994 0C29.5302 0 28.6346 0.494015 28.15 1.29555C27.6654 2.09709 27.6654 3.08465 28.15 3.88621C28.6346 4.68777 29.5302 5.18176 30.4994 5.18176C35.6593 5.16745 40.691 6.71937 44.8678 9.61315C49.0446 12.5069 52.15 16.5931 53.7364 21.2829C55.3232 25.9719 55.3087 31.021 53.695 35.7018L53.4507 35.4685C52.1863 34.2723 50.3901 33.7409 48.6387 34.0455C46.8878 34.35 45.4028 35.4521 44.6611 36.9974L39.6966 47.4642C39.2338 48.4215 39.0898 49.4911 39.2842 50.5286C39.4781 51.5665 40.0009 52.5224 40.7816 53.2676C41.8003 54.2322 43.1723 54.7804 44.6066 54.7961C45.3955 54.7974 46.1743 54.6291 46.8856 54.3038L57.8189 49.5627H57.8184C59.4366 48.8618 60.5925 47.4478 60.9117 45.7784C61.231 44.1095 60.6733 42.3967 59.4193 41.1944L59.4199 41.195Z" fill="#EB1D31"/>
<path d="M30.5006 18.1375C27.6225 18.1375 24.8625 19.2292 22.8273 21.1728C20.7922 23.1163 19.649 25.752 19.649 28.5006C19.649 31.2491 20.7922 33.8849 22.8273 35.8284C24.8625 37.772 27.6225 38.8637 30.5006 38.8637C33.3786 38.8637 36.1386 37.772 38.1738 35.8284C40.2089 33.8849 41.3521 31.2491 41.3521 28.5006C41.3493 25.7529 40.2048 23.1189 38.1706 21.1758C36.1359 19.2331 33.3777 18.1401 30.5006 18.1375ZM30.5006 33.6824C29.0617 33.6824 27.6815 33.1363 26.6637 32.1647C25.6464 31.1928 25.0746 29.8746 25.0746 28.5006C25.0746 27.1265 25.6464 25.8084 26.6637 24.8365C27.6815 23.8649 29.0617 23.3188 30.5006 23.3188C31.9394 23.3188 33.3196 23.8649 34.3374 24.8365C35.3547 25.8084 35.9265 27.1265 35.9265 28.5006C35.9247 29.8742 35.3525 31.1914 34.3355 32.163C33.3182 33.1341 31.9389 33.6806 30.5006 33.6824Z" fill="#EB1D31"/>
</svg>
