<svg xmlns="http://www.w3.org/2000/svg" width="56" height="56" viewBox="0 0 56 56">
  <g id="Group_2713413" data-name="Group 2713413" transform="translate(911 -1674)">
    <circle id="Ellipse_81" data-name="Ellipse 81" cx="28" cy="28" r="28" transform="translate(-911 1674)" fill="#f4f5fa"/>
    <g id="Group_2713097" data-name="Group 2713097" transform="translate(352.671 714)">
      <path id="Path_108934" data-name="Path 108934" d="M154.9,26.248c-1.439,4.077-6.487,5.517-12.689,5.517H140V41.7h11.911l1.869-5.233h0a3.432,3.432,0,0,1,6.576,1.926l-.763,3.307h5.946a3.119,3.119,0,0,1,3.136,2.751,3.035,3.035,0,0,1-.682,2.218,3.02,3.02,0,0,1,0,3.858A3.022,3.022,0,0,1,168,54.379a3.029,3.029,0,0,1,.687,2.223,2.775,2.775,0,0,1-.063.323A4.226,4.226,0,0,0,169.792,54V31.765h-1.655c-6.13,0-11.733-1.512-13.241-5.517Zm-8.723,8.276h-3.415v4.965h-1.1V33.972a.552.552,0,0,1,.552-.552h3.967a11.371,11.371,0,0,0,7.266-2.631l.706.848h0a12.479,12.479,0,0,1-7.972,2.886Zm21.964,4.965h-1.1V34.524h-3.415a12.479,12.479,0,0,1-7.972-2.886l.706-.848h0a11.371,11.371,0,0,0,7.266,2.631h3.967a.552.552,0,0,1,.552.552Z" transform="translate(-1389.361 945.752)" fill="#f03"/>
      <path id="Path_108935" data-name="Path 108935" d="M239.279,169.662a2.328,2.328,0,0,0-2.482,1.527l-2.13,5.965H227.5V192.6h20.031a2.009,2.009,0,0,0,2.037-1.747,1.938,1.938,0,0,0-1.667-2.1.018.018,0,0,1,0-.035,1.931,1.931,0,0,0-.25-3.844,1.931,1.931,0,0,0,.25-3.844.018.018,0,0,1-.015-.018A.018.018,0,0,1,247.9,181a1.931,1.931,0,0,0,1.659-2.1,2.009,2.009,0,0,0-2.037-1.748h-7.333l1.075-4.658a2.328,2.328,0,0,0-1.98-2.834Z" transform="translate(-1471.339 811.397)" fill="#036"/>
      <path id="Path_108936" data-name="Path 108936" d="M95.224,288.75H87.5V304.2h7.724Zm-3.862,13.241a1.655,1.655,0,1,1,1.17-.485A1.655,1.655,0,0,1,91.362,301.991Z" transform="translate(-1340.171 699.801)" fill="#036"/>
    </g>
  </g>
</svg>
