<svg id="Logo-version-1-on-white_bg" data-name="Logo-version-1-on-white bg" xmlns="http://www.w3.org/2000/svg" width="159.425" height="32" viewBox="0 0 159.425 32">
  <g id="Group_3" data-name="Group 3" transform="translate(42.667 8)">
    <g id="Logo" transform="translate(0 0)">
      <g id="Group_1337" data-name="Group 1337" transform="translate(0)">
        <path id="Path_212" data-name="Path 212" d="M260.147,335h0a4.293,4.293,0,0,0,3.16,1.6,3.208,3.208,0,0,0,.688-.071,1.713,1.713,0,0,0,.551-.224,1.2,1.2,0,0,0,.365-.4,1.235,1.235,0,0,0,.133-.588.861.861,0,0,0-.107-.448,1.217,1.217,0,0,0-.289-.343,2.1,2.1,0,0,0-.4-.256,2.873,2.873,0,0,0-.44-.191c-.273-.1-.546-.21-.817-.3s-.536-.186-.812-.3c-.153-.051-.341-.119-.555-.2a6.243,6.243,0,0,1-.688-.3,5.467,5.467,0,0,1-.688-.419,3.21,3.21,0,0,1-.615-.587,2.927,2.927,0,0,1-.445-.779,2.7,2.7,0,0,1-.17-1,2.178,2.178,0,0,1,.349-1.231,2.948,2.948,0,0,1,.931-.9,4.536,4.536,0,0,1,1.314-.536,6.248,6.248,0,0,1,1.513-.18,8.28,8.28,0,0,1,2.253.282,5.2,5.2,0,0,1,1.853.945l-1.18,1.777c-.206-.2-.406-.379-.605-.54a3.81,3.81,0,0,0-.623-.41,3.22,3.22,0,0,0-.72-.26,4.227,4.227,0,0,0-.889-.085,2.423,2.423,0,0,0-.72.1,1.53,1.53,0,0,0-.5.262,1.036,1.036,0,0,0-.282.381,1.124,1.124,0,0,0-.091.448.789.789,0,0,0,.129.448,1.311,1.311,0,0,0,.337.333,2.253,2.253,0,0,0,.458.244c.174.069.349.132.528.189.28.1.564.2.846.292s.564.191.843.288c.139.053.31.112.512.186a4.837,4.837,0,0,1,.617.274,4.034,4.034,0,0,1,.635.408,2.829,2.829,0,0,1,.566.572,2.889,2.889,0,0,1,.4.785,3.018,3.018,0,0,1,.158,1.031,2.293,2.293,0,0,1-.371,1.294,3.123,3.123,0,0,1-.972.937,4.8,4.8,0,0,1-1.376.574,6.4,6.4,0,0,1-1.579.193,11.855,11.855,0,0,1-1.357-.077,6.448,6.448,0,0,1-1.213-.264,5.031,5.031,0,0,1-1.1-.5,4.879,4.879,0,0,1-.98-.8Zm-9.954-7.475h0v7.231a1.874,1.874,0,0,0,.127.724,1.342,1.342,0,0,0,.335.493,1.235,1.235,0,0,0,.5.278,2.009,2.009,0,0,0,.613.085,6.791,6.791,0,0,0,1.529-.18,4.85,4.85,0,0,0,1.428-.56V327.52h2.61v8.716a6.025,6.025,0,0,0,.061.729c.036.315.1.686.177,1.11H255.1c-.014-.04-.037-.112-.064-.224s-.061-.224-.094-.347-.057-.24-.085-.349a2.134,2.134,0,0,1-.048-.247,4.985,4.985,0,0,1-.764.542,5.78,5.78,0,0,1-.889.43,5.633,5.633,0,0,1-.936.278,4.3,4.3,0,0,1-.9.1,4.822,4.822,0,0,1-1.791-.282,2.81,2.81,0,0,1-1.76-1.958,5.627,5.627,0,0,1-.177-1.448v-7.047Zm-11.85,8.883h0a6.308,6.308,0,0,0,.976.24,7.115,7.115,0,0,0,1.146.094,2.352,2.352,0,0,0,1.123-.276,2.562,2.562,0,0,0,.875-.8,3.993,3.993,0,0,0,.578-1.272,6.471,6.471,0,0,0,.2-1.7,6.141,6.141,0,0,0-.151-1.4,3.017,3.017,0,0,0-.47-1.081,2.162,2.162,0,0,0-.812-.693,2.685,2.685,0,0,0-1.188-.244,5.253,5.253,0,0,0-.644.043c-.215.031-.422.071-.623.12a4.706,4.706,0,0,0-.564.17,2.681,2.681,0,0,0-.458.224Zm-2.6-13.639h2.6v5.551a4.625,4.625,0,0,1,1.348-.688,5.348,5.348,0,0,1,1.731-.269,4.613,4.613,0,0,1,2.1.448,4.008,4.008,0,0,1,1.412,1.186,4.9,4.9,0,0,1,.8,1.711,7.952,7.952,0,0,1,.254,2.017,6.059,6.059,0,0,1-.458,2.467,5.122,5.122,0,0,1-1.212,1.733,4.935,4.935,0,0,1-1.695,1.022,5.848,5.848,0,0,1-1.914.332q-.751,0-1.376-.016c-.419-.012-.825-.025-1.212-.043s-.778-.047-1.16-.085-.784-.083-1.2-.138Zm-7,13.821h0a1.864,1.864,0,0,0,1.147-.355,2.681,2.681,0,0,0,.786-.929,4.64,4.64,0,0,0,.458-1.3,7,7,0,0,0,.151-1.469,6.38,6.38,0,0,0-.133-1.316,3.2,3.2,0,0,0-.447-1.083,2.244,2.244,0,0,0-.8-.734,2.4,2.4,0,0,0-1.192-.276,2.185,2.185,0,0,0-1.112.282,2.422,2.422,0,0,0-.8.779,3.785,3.785,0,0,0-.484,1.173,6.233,6.233,0,0,0-.02,2.78,4.2,4.2,0,0,0,.458,1.213,2.743,2.743,0,0,0,.809.9,2.025,2.025,0,0,0,1.18.336Zm.087,1.757h0a6.341,6.341,0,0,1-2.332-.4,4.619,4.619,0,0,1-1.7-1.138,4.862,4.862,0,0,1-1.045-1.784,7.09,7.09,0,0,1-.36-2.319,6.4,6.4,0,0,1,.328-2.053,4.677,4.677,0,0,1,2.686-2.863,6.11,6.11,0,0,1,2.385-.428,5.92,5.92,0,0,1,2.361.428,4.458,4.458,0,0,1,1.63,1.179,4.778,4.778,0,0,1,.944,1.757,7.529,7.529,0,0,1,.3,2.164,6.264,6.264,0,0,1-.355,2.118,5.192,5.192,0,0,1-1.03,1.735,4.925,4.925,0,0,1-1.637,1.171,5.3,5.3,0,0,1-2.174.43Zm-10.358-15.579h2.6v12.762a1.124,1.124,0,0,0,.165.7.552.552,0,0,0,.458.21,1.534,1.534,0,0,0,.559-.089c.153-.056.333-.128.531-.2l.44,1.307a4.348,4.348,0,0,1-.546.315,5.02,5.02,0,0,1-.617.26,5.589,5.589,0,0,1-.672.181,3.574,3.574,0,0,1-.688.069,3.886,3.886,0,0,1-.829-.089,1.657,1.657,0,0,1-.709-.34,1.719,1.719,0,0,1-.5-.686,2.916,2.916,0,0,1-.186-1.134Zm-1.7,14.287c-.363.191-.734.363-1.117.525a9.044,9.044,0,0,1-1.266.419,11.622,11.622,0,0,1-1.539.274,16.994,16.994,0,0,1-1.931.1,6.86,6.86,0,0,1-2.139-.315,5.9,5.9,0,0,1-3-2.175,7.365,7.365,0,0,1-.9-1.641,9.585,9.585,0,0,1-.536-1.861,11.19,11.19,0,0,1-.174-1.976,10.093,10.093,0,0,1,.215-2.063,8.986,8.986,0,0,1,.617-1.9,7.62,7.62,0,0,1,1.021-1.639,6.488,6.488,0,0,1,3.18-2.124,7.079,7.079,0,0,1,2.128-.305c.379,0,.726.012,1.042.032a7.808,7.808,0,0,1,.875.1,4.821,4.821,0,0,1,.775.2,5.508,5.508,0,0,1,.74.315,6.546,6.546,0,0,1,.773.459q.4.267.881.63l-1.45,1.952a10.013,10.013,0,0,0-.966-.773,4.56,4.56,0,0,0-.881-.489,4.029,4.029,0,0,0-.9-.256,6.653,6.653,0,0,0-1.034-.071,3.539,3.539,0,0,0-1.761.433,3.9,3.9,0,0,0-1.293,1.195,5.577,5.577,0,0,0-.793,1.778,8.495,8.495,0,0,0-.27,2.2,11.273,11.273,0,0,0,.23,2.347,6.344,6.344,0,0,0,.743,1.976,4.051,4.051,0,0,0,1.314,1.364,3.568,3.568,0,0,0,1.931.507,5.312,5.312,0,0,0,.665-.029c.236-.029.472-.047.714-.083s.476-.079.706-.128.442-.1.644-.15v-5.181h2.749Z" transform="translate(-204.166 -322.367)" fill="#036" fill-rule="evenodd"/>
        <path id="Path_211" data-name="Path 211" d="M546.488,333.4h0l3.635-4.015h3.349l-5.059,4.85,5.388,6.018h-3.208l-4.1-4.7v4.7h-2.679V324.477h2.679Zm-14.571-2.153h0c0-.216,0-.492-.019-.833a6.237,6.237,0,0,0-.11-1.03h2.523a1.682,1.682,0,0,1,.061.2c.019.082.04.175.066.27s.045.2.063.3.031.2.045.288a4.378,4.378,0,0,1,.6-.443,5.151,5.151,0,0,1,1.667-.679,4.688,4.688,0,0,1,1.014-.108,4.873,4.873,0,0,1,1.609.262,3.787,3.787,0,0,1,1.3.756,3.555,3.555,0,0,1,.872,1.21,3.952,3.952,0,0,1,.319,1.621v7.2h-2.685v-6.7a3.984,3.984,0,0,0-.135-1.106,1.809,1.809,0,0,0-.4-.732,1.5,1.5,0,0,0-.643-.4,2.818,2.818,0,0,0-.877-.128,4.276,4.276,0,0,0-.619.049,4.708,4.708,0,0,0-.674.134,6.8,6.8,0,0,0-.678.216,4.393,4.393,0,0,0-.624.271v8.4h-2.677ZM526.4,334.58h0a9.33,9.33,0,0,0-1.962.25,3.567,3.567,0,0,0-1.216.529,1.753,1.753,0,0,0-.626.764,2.588,2.588,0,0,0-.172.961,2.2,2.2,0,0,0,.1.737,1.151,1.151,0,0,0,.293.473,1.084,1.084,0,0,0,.472.254,2.121,2.121,0,0,0,.586.076c.193,0,.39-.012.59-.028a3.949,3.949,0,0,0,.626-.118,4.08,4.08,0,0,0,.645-.231,4.21,4.21,0,0,0,.663-.382Zm-6.513-3.716h0a6.307,6.307,0,0,1,2.082-1.213,7.371,7.371,0,0,1,2.533-.439,7.247,7.247,0,0,1,1.721.2,4.749,4.749,0,0,1,1.463.609,3.164,3.164,0,0,1,1.019,1.062,2.992,2.992,0,0,1,.38,1.536v4.85a3.43,3.43,0,0,0,.042.591.873.873,0,0,0,.137.37.543.543,0,0,0,.253.195,1.156,1.156,0,0,0,.383.053,2.767,2.767,0,0,0,.31-.03q.237-.033.432-.069l.289,1.155c-.165.1-.332.191-.505.282a3.666,3.666,0,0,1-.553.231,4.375,4.375,0,0,1-.636.159,4.776,4.776,0,0,1-.761.062,2.3,2.3,0,0,1-1.29-.351,1.538,1.538,0,0,1-.664-.991,4.816,4.816,0,0,1-.9.648,5.053,5.053,0,0,1-.931.414,5.3,5.3,0,0,1-.945.216,7.769,7.769,0,0,1-.91.062,4.558,4.558,0,0,1-1.349-.195,2.752,2.752,0,0,1-1.021-.571,2.493,2.493,0,0,1-.65-.924,3.48,3.48,0,0,1-.235-1.3,3.766,3.766,0,0,1,.262-1.462,3.258,3.258,0,0,1,.726-1.081,3.95,3.95,0,0,1,1.106-.748,6.614,6.614,0,0,1,1.4-.462,11.589,11.589,0,0,1,1.6-.242q.844-.069,1.718-.069v-.392a2.474,2.474,0,0,0-.151-.924,1.691,1.691,0,0,0-.427-.626,1.837,1.837,0,0,0-.655-.355,2.916,2.916,0,0,0-.844-.116,3.778,3.778,0,0,0-.742.067,2.893,2.893,0,0,0-.709.231,4.48,4.48,0,0,0-.735.443,9.191,9.191,0,0,0-.848.711Zm-9.571-4.348h0v4.679h1.5a6.088,6.088,0,0,0,1.385-.14,3.115,3.115,0,0,0,1.064-.432,2.054,2.054,0,0,0,.673-.746,2.264,2.264,0,0,0,.237-1.06,2.731,2.731,0,0,0-.175-1.018,1.564,1.564,0,0,0-.591-.713,3.027,3.027,0,0,0-1.1-.422,8.641,8.641,0,0,0-1.692-.141Zm0,6.713h0v5h2.172a4.6,4.6,0,0,0,1.469-.21,3.143,3.143,0,0,0,1.031-.561,2.209,2.209,0,0,0,.6-.776,2.065,2.065,0,0,0,.2-.864,2.589,2.589,0,0,0-.2-1,2.129,2.129,0,0,0-.607-.82,3.1,3.1,0,0,0-1.056-.555,5.152,5.152,0,0,0-1.548-.206Zm2.323-8.752a8.43,8.43,0,0,1,2.2.267,5.088,5.088,0,0,1,1.659.769,3.531,3.531,0,0,1,1.058,1.237,3.708,3.708,0,0,1,.368,1.682,2.862,2.862,0,0,1-.237,1.155,3.845,3.845,0,0,1-.652,1.034,4.306,4.306,0,0,1-.968.813,4.257,4.257,0,0,1-1.181.51,5.62,5.62,0,0,1,1.295.4,4.387,4.387,0,0,1,1.216.8,4,4,0,0,1,.908,1.221,3.709,3.709,0,0,1,.355,1.674,3.639,3.639,0,0,1-.359,1.566,3.946,3.946,0,0,1-1.073,1.346,5.322,5.322,0,0,1-1.76.942,7.522,7.522,0,0,1-2.433.355h-5.56V324.471Z" transform="translate(-437.042 -323.883)" fill="#036" fill-rule="evenodd"/>
      </g>
    </g>
  </g>
  <g id="Group_4644" data-name="Group 4644">
    <path id="Path_60324" data-name="Path 60324" d="M32.535,281.66a16,16,0,1,1-11.33,4.677,16,16,0,0,1,11.33-4.677" transform="translate(-16.51 -281.66)" fill="#f03" fill-rule="evenodd"/>
    <path id="Path_60325" data-name="Path 60325" d="M55.425,334.126h0v-3.014l3.823.025a2.768,2.768,0,0,1,2.738,3.022c0,4.253-6.55,5.164-6.556-.033m0-7.993h0c7.053-3.7,7.675,4.429,3.416,4.041H55.412Zm6.146,4.413c5.056-1.936.83-9.475-7.445-4.811a6.451,6.451,0,0,0-2.941-1.351c-2.044-.415-4.786-.054-6.324,1.382l.743.729a5.546,5.546,0,0,1,5.874-.866,2.382,2.382,0,0,1,1.3,1.6l.037,6.926h0c-.3,4.811-6.5,4.439-6.5,0v-3.038h4.873V330.2H43.75v2.991c.019,5.685,6.934,6.641,10.359,3.875a7.628,7.628,0,0,0,4.857,1.494c6.139-.042,7.4-6.662,2.592-8.009Z" transform="translate(-37.995 -315.328)" fill="#fff" fill-rule="evenodd"/>
  </g>
</svg>
