<svg width="18" height="12" viewBox="0 0 21 75" fill="none" xmlns="http://www.w3.org/2000/svg">
<path fill-rule="evenodd" clip-rule="evenodd" d="M10.5675 52.7145C14.4125 52.7529 18.1565 55.1632 19.8923 58.7528C21.3389 61.7437 21.3703 65.4314 19.9767 68.4488C17.9863 72.7589 13.1055 75.4203 8.44785 74.4561C5.26497 73.7971 2.43457 71.504 1.02317 68.4488C-0.359611 65.4556 -0.340694 61.7934 1.07939 58.812C2.80063 55.1981 6.49969 52.7535 10.4323 52.7145H10.5669H10.5675ZM10.568 26.3573C14.4153 26.3962 18.1587 28.8116 19.8923 32.395C21.3389 35.3864 21.3703 39.0741 19.9766 42.0916C17.9862 46.4016 13.1055 49.0631 8.44784 48.0988C5.26496 47.4398 2.43455 45.1468 1.02315 42.0916C-0.359628 39.0984 -0.34071 35.4361 1.07937 32.4547C2.7973 28.8477 6.50023 26.3968 10.4318 26.3573H10.568ZM10.5675 0C14.4114 0.0383659 18.1586 2.45431 19.8923 6.0377C21.3389 9.02918 21.3703 12.7169 19.9767 15.7343C17.9928 20.0302 13.1557 22.6843 8.5122 21.7546C5.29846 21.1114 2.44218 18.806 1.02372 15.7343C-0.359058 12.7417 -0.34014 9.07886 1.07994 6.0975C2.79731 2.49157 6.52723 0.0389986 10.4329 0H10.5675Z" fill="black"/>
</svg>
