<svg id="twitter" xmlns="http://www.w3.org/2000/svg" width="35" height="35" viewBox="0 0 35 35">
  <g id="Ellipse_226" data-name="Ellipse 226" fill="none" stroke="#5b5b5b" stroke-width="1">
    <circle cx="17.5" cy="17.5" r="17.5" stroke="none"/>
    <circle cx="17.5" cy="17.5" r="17" fill="none"/>
  </g>
  <g id="Group_337184" data-name="Group 337184" transform="translate(10.001 11.003)">
    <path id="Path_187745" data-name="Path 187745" d="M15.941,7.156a6.566,6.566,0,0,1-1.887.517A3.291,3.291,0,0,0,15.5,5.858a6.591,6.591,0,0,1-2.085.8A3.284,3.284,0,0,0,7.821,9.647a9.321,9.321,0,0,1-6.766-3.43A3.29,3.29,0,0,0,2.071,10.6a3.28,3.28,0,0,1-1.487-.41v.041a3.287,3.287,0,0,0,2.632,3.22,3.285,3.285,0,0,1-.864.115,3.162,3.162,0,0,1-.619-.06A3.29,3.29,0,0,0,4.8,15.786a6.58,6.58,0,0,1-4.076,1.4,6.454,6.454,0,0,1-.782-.046,9.274,9.274,0,0,0,5.032,1.475,9.276,9.276,0,0,0,9.34-9.339c0-.142,0-.286-.009-.425a6.673,6.673,0,0,0,1.636-1.7Z" transform="translate(0.058 -5.621)" fill="#5b5b5b"/>
  </g>
</svg>
