<svg xmlns="http://www.w3.org/2000/svg" width="18.011" height="20" viewBox="0 0 18.011 20">
  <path id="user-tag" d="M18.009,2H6A2.985,2.985,0,0,0,3,4.972V15.889a2.985,2.985,0,0,0,3,2.972h.76a2.989,2.989,0,0,1,2.121.871l1.711,1.691a2.024,2.024,0,0,0,2.832,0l1.711-1.691a3.007,3.007,0,0,1,2.121-.871h.75a2.985,2.985,0,0,0,3-2.972V4.972A2.985,2.985,0,0,0,18.009,2Zm-6,3.752A2.331,2.331,0,1,1,9.674,8.084,2.327,2.327,0,0,1,12.006,5.752Zm2.682,9.316H9.324A1,1,0,0,1,8.493,13.5a4.211,4.211,0,0,1,3.512-1.691A4.211,4.211,0,0,1,15.518,13.5,1.008,1.008,0,0,1,14.687,15.068Z" transform="translate(-3 -2)" fill="#fff"/>
</svg>
