<svg width="28" height="35" viewBox="0 0 115 135" fill="none" xmlns="http://www.w3.org/2000/svg">
<path d="M22.7599 81.7343H12.3246V102.499H22.8801C26.2257 102.499 28.3777 101.761 29.3354 100.288C30.2883 98.8116 30.7628 95.4791 30.7628 90.2981C30.7628 87.1256 30.168 84.907 28.986 83.6366C27.8003 82.3625 25.727 81.7344 22.7597 81.7344L22.7599 81.7343ZM25.8302 97.8784C25.2652 98.7476 24.0188 99.1817 22.0919 99.1817L16.3526 99.1827V85.05H22.3422C24.2181 85.05 25.4126 85.4634 25.9169 86.2949C26.4261 87.1264 26.6802 89.0747 26.6802 92.1379C26.6754 95.0985 26.3953 97.014 25.8303 97.8783L25.8302 97.8784Z" fill="#FF0032"/>
<path d="M42.5207 81.5463C38.1876 81.5463 35.4667 82.1791 34.3539 83.4484C33.2461 84.7178 32.6898 87.8234 32.6898 92.772C32.6898 96.9314 33.2548 99.6237 34.3886 100.842C35.5185 102.066 38.0103 102.678 41.8652 102.678C46.1473 102.678 48.8421 102.062 49.9587 100.825C51.0752 99.5851 51.6315 96.5897 51.6315 91.8313C51.6315 87.4817 51.0752 84.6802 49.9674 83.4279C48.8596 82.1755 46.3802 81.5464 42.5206 81.5464L42.5207 81.5463ZM46.7978 98.2743C46.2974 98.9579 44.8017 99.3035 42.3002 99.3035C39.6918 99.3035 38.1134 98.9994 37.5829 98.3882C37.0478 97.7761 36.7812 95.9879 36.7812 93.0056C36.7812 88.9771 37.0093 86.6228 37.4626 85.943C37.915 85.2641 39.5021 84.926 42.2057 84.926C44.8187 84.926 46.3626 85.2424 46.8323 85.879C47.3019 86.5155 47.5397 88.5703 47.5397 92.047C47.5435 95.5152 47.2981 97.5906 46.7976 98.2742L46.7978 98.2743Z" fill="#FF0032"/>
<path d="M67.4903 96.0176C67.4903 97.3972 67.1967 98.2871 66.5981 98.6966C65.9985 99.1015 64.7049 99.3087 62.7048 99.3087C60.2379 99.3087 58.777 98.9415 58.3283 98.2117C57.876 97.4772 57.6517 95.1277 57.6517 91.1491C57.6517 88.1998 57.902 86.4236 58.4063 85.8248C58.9107 85.2259 60.4111 84.9265 62.9079 84.9265C64.7751 84.9265 65.9696 85.1167 66.4912 85.4962C67.0177 85.8804 67.2805 86.7495 67.2805 88.1074V88.6385H71.3248L71.3075 88.1705C71.3075 85.5301 70.7983 83.7701 69.781 82.8803C68.7675 81.9942 66.7454 81.5516 63.7184 81.5516C59.5615 81.5516 56.828 82.0912 55.5258 83.1713C54.2197 84.2551 53.5681 86.5086 53.5681 89.9381C53.5681 95.7594 54.0465 99.3417 55.0128 100.679C55.9792 102.016 58.5528 102.687 62.7395 102.687C66.4305 102.687 68.8146 102.265 69.8926 101.417C70.9706 100.57 71.5096 98.7003 71.5096 95.8104L71.5086 95.089H67.4643L67.4903 96.0176Z" fill="#FF0032"/>
<path d="M91.9228 81.7343H87.1624L84.3338 86.3749C83.8334 87.1847 83.4195 87.9061 83.0874 88.5351L82.6995 89.2526C82.6129 89.4127 82.484 89.6576 82.3117 89.9824H82.2472L81.8593 89.2526L81.4666 88.5181C81.0739 87.8091 80.6562 87.0877 80.2077 86.3579L77.3791 81.7343H72.5754L79.0432 91.7875L72.0796 102.499H76.9306L79.9923 97.5083C80.6776 96.4028 81.2897 95.3528 81.8287 94.3566L82.2773 93.5383H82.3417L82.7902 94.3444L83.2253 95.1627C83.6526 95.9556 84.0963 96.7362 84.566 97.5084L87.6142 102.499H92.34L85.5489 91.7876L91.9228 81.7343Z" fill="#FF0032"/>
<path d="M10.312 0V71.5419H0.290649V111.94L10.2773 121.715L10.3119 121.681V135H115L114.999 28.3922L85.9886 0.00153802L10.312 0ZM2.4466 73.6513H104.173V110.45H2.4466V73.6513ZM10.312 118.765L3.96932 112.559H10.312V118.765ZM112.849 132.889H12.468V112.559H106.329V71.5415H12.468V2.10887H84.1737V30.8563H112.844L112.843 132.889L112.849 132.889ZM86.3321 3.31469L112.314 28.745H86.3321V3.31469Z" fill="#FF0032"/>
</svg>
