<svg width="38" height="50" viewBox="0 0 76 76" fill="none" xmlns="http://www.w3.org/2000/svg">
<path d="M14.1889 67.0591H64.1771V71.6591H64.1763C64.1748 72.7894 63.6815 73.873 62.8047 74.672C61.9271 75.471 60.7386 75.9199 59.4983 75.9212H5.05681C3.81721 75.9199 2.62806 75.4703 1.75124 74.6713C0.874389 73.8723 0.381078 72.7894 0.379578 71.6592V5.01327C0.381061 3.88303 0.874389 2.80011 1.75124 2.00113C2.62809 1.20211 3.81727 0.752588 5.05681 0.751221H40.0914L61.0461 21.8203H48.3652C47.1256 21.819 45.9372 21.3694 45.0604 20.5704C44.1836 19.7714 43.6902 18.6885 43.6887 17.5583V10.9572C43.6887 9.70325 42.573 8.68589 41.1962 8.68589C39.8193 8.68589 38.7036 9.70325 38.7036 10.9572V17.5583C38.7066 19.8924 39.7251 22.1307 41.5367 23.7814C43.3483 25.4315 45.8038 26.3602 48.3653 26.363H64.176V32.7639H14.1898C12.813 32.7639 11.6973 33.7805 11.6973 35.0352V64.7881C11.6973 66.0427 12.813 67.0594 14.1898 67.0594L14.1889 67.0591ZM75.9496 37.3062V62.5182H16.6768V37.3062H75.9496ZM36.0685 48.4964V48.4958C36.0685 46.5233 35.2087 44.6305 33.679 43.2339C32.1501 41.8374 30.0745 41.0505 27.9097 41.0464H23.7881C22.4135 41.0498 21.2999 42.0644 21.2956 43.3177V56.4913C21.2948 57.0936 21.5574 57.6716 22.0248 58.0981C22.4929 58.524 23.1271 58.7633 23.7881 58.7626H27.9097C30.073 58.7613 32.1478 57.9778 33.6775 56.5839C35.2079 55.1893 36.0677 53.2994 36.0685 51.3274V48.4964ZM53.699 47.7846C53.699 45.3796 52.2917 43.1576 50.0062 41.9555C47.7206 40.753 44.9054 40.753 42.6196 41.9555C40.3348 43.1574 38.9268 45.3794 38.9268 47.7846V52.0393C38.9268 54.4439 40.3348 56.6657 42.6196 57.8684C44.9052 59.0703 47.7204 59.0703 50.0062 57.8684C52.2917 56.6658 53.699 54.4439 53.699 52.0393V47.7846ZM61.5424 51.3282V48.4959C61.5387 47.7266 61.8718 46.9878 62.4675 46.4423C63.0625 45.8967 63.8718 45.5898 64.7168 45.5892H68.8377C70.2138 45.5892 71.3302 44.5718 71.3302 43.3179C71.3302 42.0632 70.2138 41.0465 68.8377 41.0465H64.7168C62.5514 41.0506 60.4765 41.8374 58.9468 43.2341C57.4171 44.6307 56.5581 46.5235 56.5573 48.4959V51.3276C56.5588 53.2995 57.4186 55.1894 58.9483 56.5841C60.4779 57.9779 62.5528 58.7614 64.7168 58.7628H68.8377C70.2138 58.7628 71.3302 57.7454 71.3302 56.4915C71.3302 55.2368 70.2138 54.2202 68.8377 54.2202H64.7168C63.8741 54.2222 63.0647 53.9187 62.469 53.3758C61.8733 52.833 61.5395 52.0955 61.5425 51.3276L61.5424 51.3282ZM27.9094 45.5891H26.281V54.2201H27.9101C28.7528 54.2221 29.5614 53.9186 30.1571 53.3758C30.7528 52.833 31.0866 52.0955 31.0837 51.3275V48.4959C31.0874 47.7266 30.7543 46.9878 30.1593 46.4423C29.5637 45.8968 28.7543 45.5899 27.9101 45.5892L27.9094 45.5891ZM46.321 45.5891H46.3217C44.9916 45.5898 43.9129 46.572 43.9121 47.7848V52.0395C43.9121 53.2481 44.9871 54.2277 46.3135 54.2277C47.6392 54.2277 48.7142 53.2482 48.7142 52.0395V47.7848C48.7157 46.5775 47.6459 45.5966 46.3217 45.5891H46.321Z" fill="#0061C3"/>
</svg>
